<?xml version="1.0" encoding="UTF-8" standalone="no"?>
<!-- Created with Inkscape (http://www.inkscape.org/) -->

<svg
   width="640"
   height="360"
   viewBox="0 0 169.33333 95.249999"
   version="1.1"
   id="svg5"
   xml:space="preserve"
   inkscape:version="1.3 (0e150ed6c4, 2023-07-21)"
   sodipodi:docname="preview.svg"
   inkscape:export-filename="..\CategorizedCleaningSplit\About\preview.png"
   inkscape:export-xdpi="96"
   inkscape:export-ydpi="96"
   xmlns:inkscape="http://www.inkscape.org/namespaces/inkscape"
   xmlns:sodipodi="http://sodipodi.sourceforge.net/DTD/sodipodi-0.dtd"
   xmlns:xlink="http://www.w3.org/1999/xlink"
   xmlns="http://www.w3.org/2000/svg"
   xmlns:svg="http://www.w3.org/2000/svg"><sodipodi:namedview
     id="namedview7"
     pagecolor="#505050"
     bordercolor="#ffffff"
     borderopacity="1"
     inkscape:showpageshadow="0"
     inkscape:pageopacity="0"
     inkscape:pagecheckerboard="1"
     inkscape:deskcolor="#505050"
     inkscape:document-units="mm"
     showgrid="false"
     inkscape:zoom="1.2938725"
     inkscape:cx="379.48098"
     inkscape:cy="176.60164"
     inkscape:window-width="2560"
     inkscape:window-height="1417"
     inkscape:window-x="-8"
     inkscape:window-y="-8"
     inkscape:window-maximized="1"
     inkscape:current-layer="layer1" /><defs
     id="defs2"><linearGradient
       id="linearGradient64"
       inkscape:collect="always"><stop
         style="stop-color:#1a1a1a;stop-opacity:1;"
         offset="0"
         id="stop65" /><stop
         style="stop-color:#1a1a1a;stop-opacity:0;"
         offset="0.70544553"
         id="stop67" /><stop
         style="stop-color:#1a1a1a;stop-opacity:0;"
         offset="1"
         id="stop66" /></linearGradient><linearGradient
       id="linearGradient61"
       inkscape:collect="always"><stop
         style="stop-color:#ffffff;stop-opacity:0.3968254;"
         offset="0.00247525"
         id="stop62" /><stop
         style="stop-color:#cccccc;stop-opacity:0.20238096;"
         offset="0.16831683"
         id="stop64" /><stop
         style="stop-color:#afafaf;stop-opacity:0;"
         offset="0.63613862"
         id="stop63" /></linearGradient><linearGradient
       id="linearGradient59"
       inkscape:collect="always"><stop
         style="stop-color:#000000;stop-opacity:1;"
         offset="0"
         id="stop56" /><stop
         style="stop-color:#000000;stop-opacity:1;"
         offset="0.18564357"
         id="stop57" /><stop
         style="stop-color:#ffffff;stop-opacity:0.7019608;"
         offset="0.20792079"
         id="stop58" /><stop
         style="stop-color:#ffffff;stop-opacity:0.82352942;"
         offset="0.50495052"
         id="stop61" /><stop
         style="stop-color:#ff2727;stop-opacity:0.90588235;"
         offset="0.68069309"
         id="stop60" /><stop
         style="stop-color:#ff0000;stop-opacity:0.94509804;"
         offset="1"
         id="stop59" /></linearGradient><linearGradient
       id="linearGradient53"
       inkscape:collect="always"><stop
         style="stop-color:#e2bba8;stop-opacity:1;"
         offset="0"
         id="stop54" /><stop
         style="stop-color:#cd8966;stop-opacity:1;"
         offset="1"
         id="stop55" /></linearGradient><linearGradient
       id="linearGradient50"
       inkscape:collect="always"><stop
         style="stop-color:#7c7c7c;stop-opacity:1;"
         offset="0.20049505"
         id="stop51" /><stop
         style="stop-color:#d1d1d1;stop-opacity:1;"
         offset="0.51237625"
         id="stop53" /><stop
         style="stop-color:#c4c4c4;stop-opacity:1;"
         offset="1"
         id="stop52" /></linearGradient><linearGradient
       id="linearGradient46"
       inkscape:collect="always"><stop
         style="stop-color:#3d95a8;stop-opacity:1;"
         offset="0.15594059"
         id="stop47" /><stop
         style="stop-color:#8bdaea;stop-opacity:1;"
         offset="0.50495046"
         id="stop50" /><stop
         style="stop-color:#ade6ef;stop-opacity:1;"
         offset="0.74257427"
         id="stop49" /><stop
         style="stop-color:#82d7e9;stop-opacity:1;"
         offset="1"
         id="stop48" /></linearGradient><linearGradient
       id="swatch32"><stop
         style="stop-color:#776955;stop-opacity:1;"
         offset="0"
         id="stop32" /></linearGradient><linearGradient
       inkscape:collect="always"
       id="linearGradient2"><stop
         style="stop-color:#c7a65e;stop-opacity:1;"
         offset="0.01485149"
         id="stop1" /><stop
         style="stop-color:#fcfbd1;stop-opacity:1;"
         offset="0.25742573"
         id="stop46" /><stop
         style="stop-color:#f3d970;stop-opacity:1;"
         offset="0.66584158"
         id="stop68" /><stop
         style="stop-color:#dd0000;stop-opacity:1;"
         offset="1"
         id="stop2" /></linearGradient><inkscape:path-effect
       effect="powerclip"
       id="path-effect12688"
       is_visible="true"
       lpeversion="1"
       inverse="true"
       flatten="false"
       hide_clip="false"
       message="Use fill-rule evenodd on &lt;b&gt;fill and stroke&lt;/b&gt; dialog if no flatten result after convert clip to paths." /><linearGradient
       inkscape:collect="always"
       id="linearGradient5229"><stop
         style="stop-color:#5d5d5d;stop-opacity:1;"
         offset="0"
         id="stop81" /><stop
         style="stop-color:#a2a2a2;stop-opacity:0.5;"
         offset="0.07425743"
         id="stop83" /><stop
         style="stop-color:#b9b9b9;stop-opacity:0.50396824;"
         offset="0.10148516"
         id="stop5225" /><stop
         style="stop-color:#b7b7b7;stop-opacity:0;"
         offset="0.29882258"
         id="stop5233" /><stop
         style="stop-color:#ffffff;stop-opacity:0;"
         offset="0.82790548"
         id="stop5235" /><stop
         style="stop-color:#ffffff;stop-opacity:0.5;"
         offset="0.96534657"
         id="stop5227" /><stop
         style="stop-color:#ffffff;stop-opacity:0.5;"
         offset="0.96782178"
         id="stop84" /><stop
         style="stop-color:#ffffff;stop-opacity:1;"
         offset="1"
         id="stop82" /></linearGradient><linearGradient
       inkscape:collect="always"
       id="linearGradient3711"><stop
         style="stop-color:#000000;stop-opacity:1;"
         offset="0"
         id="stop3707" /><stop
         style="stop-color:#000000;stop-opacity:0;"
         offset="1"
         id="stop3709" /></linearGradient><linearGradient
       inkscape:collect="always"
       id="linearGradient3703"><stop
         style="stop-color:#000000;stop-opacity:1;"
         offset="0"
         id="stop3699" /><stop
         style="stop-color:#000000;stop-opacity:0;"
         offset="1"
         id="stop3701" /></linearGradient><linearGradient
       inkscape:collect="always"
       id="linearGradient3660"><stop
         style="stop-color:#b4b4ff;stop-opacity:0.17460318;"
         offset="0"
         id="stop3656" /><stop
         style="stop-color:#ffffff;stop-opacity:0.76984125;"
         offset="1"
         id="stop3658" /></linearGradient><rect
       x="56.41978"
       y="34.779316"
       width="672.9055"
       height="331.91123"
       id="rect404" /><rect
       x="67.240011"
       y="40.962306"
       width="511.64238"
       height="205.5844"
       id="rect398" /><linearGradient
       inkscape:collect="always"
       xlink:href="#linearGradient2"
       id="linearGradient2912"
       x1="75.336441"
       y1="6.6702089"
       x2="75.336441"
       y2="27.014654"
       gradientUnits="userSpaceOnUse"
       gradientTransform="translate(-2.8563801,-1.7051579)" /><linearGradient
       inkscape:collect="always"
       xlink:href="#linearGradient3660"
       id="linearGradient3662"
       x1="344.02121"
       y1="121.70117"
       x2="342.72397"
       y2="47.544922"
       gradientUnits="userSpaceOnUse" /><linearGradient
       inkscape:collect="always"
       xlink:href="#linearGradient3703"
       id="linearGradient3705"
       x1="5.8100092"
       y1="16.842432"
       x2="144.18317"
       y2="16.842432"
       gradientUnits="userSpaceOnUse" /><linearGradient
       inkscape:collect="always"
       xlink:href="#linearGradient3711"
       id="linearGradient3713"
       x1="7.445926"
       y1="82.94392"
       x2="39.179435"
       y2="82.94392"
       gradientUnits="userSpaceOnUse" /><linearGradient
       inkscape:collect="always"
       xlink:href="#linearGradient5229"
       id="linearGradient5231"
       x1="84.666664"
       y1="95.25"
       x2="84.666664"
       y2="1.6167623e-15"
       gradientUnits="userSpaceOnUse"
       gradientTransform="translate(3.9407491e-6)" /><filter
       id="mask-powermask-path-effect12258_inverse"
       inkscape:label="filtermask-powermask-path-effect12258"
       style="color-interpolation-filters:sRGB"
       height="100"
       width="100"
       x="-50"
       y="-50"><feColorMatrix
         id="mask-powermask-path-effect12258_primitive1"
         values="1"
         type="saturate"
         result="fbSourceGraphic" /><feColorMatrix
         id="mask-powermask-path-effect12258_primitive2"
         values="-1 0 0 0 1 0 -1 0 0 1 0 0 -1 0 1 0 0 0 1 0 "
         in="fbSourceGraphic" /></filter><clipPath
       clipPathUnits="userSpaceOnUse"
       id="clipPath12264"><g
         id="g12686"
         style="display:block"><path
           d="m 418.91,5.35 c 0.21,4.68 0.21,4.68 1.22,6.11 1.01,1.44 1.01,1.44 13.85,9.29 12.84,7.84 12.84,7.84 17,7.27 4.16,-0.57 4.16,-0.57 8.23,-13.96 4.06,-13.4 4.06,-13.4 -18.22,-13.4 -22.28,0 -22.28,0 -22.08,4.69"
           fill="#efefef"
           stroke="3f3f3f"
           stroke-width="1"
           id="path12266" /><path
           d="m 372.06,9.71 c 5.14,9.19 5.14,9.19 8.21,11.01 3.06,1.82 3.06,1.82 19.82,-4.51 16.76,-6.33 16.76,-6.33 16.56,-11.01 -0.2,-4.68 -0.2,-4.68 -24.97,-4.68 -24.77,0 -24.77,0 -19.62,9.19"
           fill="#efefef"
           stroke="3f3f3f"
           stroke-width="1"
           id="path12268" /><path
           d="m 210.95,3.25 c 0.1,2.62 0.1,2.62 7.66,13.92 7.57,11.3 7.57,11.3 12.11,13.15 4.54,1.85 4.54,1.85 33.29,-10.02 28.75,-11.87 28.75,-11.87 29.13,-15.77 0.39,-3.9 0.39,-3.9 -40.95,-3.9 -41.34,0 -41.34,0 -41.24,2.62"
           fill="#efefef"
           stroke="3f3f3f"
           stroke-width="1"
           id="path12270" /><path
           d="m 710.51,21.16 c 2.23,20.16 2.23,20.16 12.6,17.67 10.38,-2.49 10.38,-2.49 16.07,-20.16 5.69,-17.68 5.69,-17.68 -12.61,-17.68 -18.3,0 -18.3,0 -16.06,20.17"
           fill="#efefef"
           stroke="3f3f3f"
           stroke-width="1"
           id="path12272" /><path
           d="M 34.49,43.65 C 67.18,34.58 67.18,34.58 70.06,17.84 72.95,1.11 72.95,1.11 37.37,1.11 c -35.58,0 -35.58,0 -35.58,25.81 0,25.81 0,25.81 32.7,16.73"
           fill="#efefef"
           stroke="3f3f3f"
           stroke-width="1"
           id="path12274" /><path
           d="m 162.49,13.04 c 16.82,12.64 16.82,12.64 31.15,1.31 C 207.97,3.02 207.97,3.02 176.82,1.71 145.67,0.4 145.67,0.4 162.49,13.04"
           fill="#efefef"
           stroke="3f3f3f"
           stroke-width="1"
           id="path12276" /><path
           d="m 473.55,33.87 c 15.33,6.17 15.33,6.17 27.71,1.95 12.37,-4.23 12.37,-4.23 22.18,-15.06 9.81,-10.84 9.81,-10.84 10.25,-15.34 0.45,-4.5 0.45,-4.5 -33.44,-4.5 -33.89,0 -33.89,0 -37.96,13.39 -4.06,13.39 -4.06,13.39 11.26,19.56"
           fill="#efefef"
           stroke="3f3f3f"
           stroke-width="1"
           id="path12278" /><path
           d="m 747.4,35.84 c 12.46,-0.6 12.46,-0.6 16.41,-17.68 3.94,-17.07 3.94,-17.07 -6.78,-17.07 -10.72,0 -10.72,0 -16.41,17.67 -5.69,17.68 -5.69,17.68 6.78,17.08"
           fill="#efefef"
           stroke="3f3f3f"
           stroke-width="1"
           id="path12280" /><path
           d="m 299.35,15.66 c 2.94,7.08 2.94,7.08 14.99,11.82 12.06,4.73 12.06,4.73 18.52,3.41 6.45,-1.33 6.45,-1.33 10.42,-15.72 3.96,-14.39 3.96,-14.39 -21.07,-14.39 -25.02,0 -25.02,0 -25.4,3.9 -0.39,3.9 -0.39,3.9 2.54,10.98"
           fill="#efefef"
           stroke="3f3f3f"
           stroke-width="1"
           id="path12282" /><path
           d="m 675.46,26.29 c 11.32,24.84 11.32,24.84 20.48,24.57 9.16,-0.26 9.16,-0.26 12.23,-4.67 3.07,-4.4 3.07,-4.4 0.83,-24.56 -2.23,-20.17 -2.23,-20.17 -23.54,-20.17 -21.31,0 -21.31,0 -10,24.83"
           fill="#efefef"
           stroke="3f3f3f"
           stroke-width="1"
           id="path12284" /><path
           d="m 134.52,16.79 c 2.94,15.83 2.94,15.83 17.96,17.09 15.01,1.26 15.01,1.26 20.08,-3.19 5.07,-4.46 5.07,-4.46 -11.75,-17.1 C 143.99,0.95 143.99,0.95 137.79,0.95 c -6.2,0 -6.2,0 -3.27,15.84"
           fill="#efefef"
           stroke="3f3f3f"
           stroke-width="1"
           id="path12286" /><path
           d="m 780.29,34.73 c 18.82,-0.16 18.82,-0.16 18.82,-17 0,-16.84 0,-16.84 -14.97,-16.84 -14.96,0 -14.96,0 -18.82,17 -3.85,17.01 -3.85,17.01 14.97,16.84"
           fill="#efefef"
           stroke="3f3f3f"
           stroke-width="1"
           id="path12288" /><path
           d="m 344.95,31.72 c 3.75,2.1 3.75,2.1 17.1,-5.2 13.34,-7.3 13.34,-7.3 8.19,-16.49 -5.14,-9.19 -5.14,-9.19 -13.13,-9.19 -7.98,0 -7.98,0 -11.95,14.39 -3.96,14.38 -3.96,14.38 -0.21,16.49"
           fill="#efefef"
           stroke="3f3f3f"
           stroke-width="1"
           id="path12290" /><path
           d="m 568.09,43.46 c 30.17,32.22 30.17,32.22 33.01,34.32 2.85,2.1 2.85,2.1 10.81,-0.92 7.97,-3.01 7.97,-3.01 10.16,-5.73 2.18,-2.71 2.18,-2.71 2.74,-35.8 0.57,-33.1 0.57,-33.1 -42.71,-33.1 -43.28,0 -43.28,0 -43.73,4.5 -0.45,4.5 -0.45,4.5 29.72,36.73"
           fill="#efefef"
           stroke="3f3f3f"
           stroke-width="1"
           id="path12292" /><path
           d="m 655.85,59.45 c 28.71,-8.26 28.71,-8.26 17.4,-33.1 C 661.93,1.52 661.93,1.52 645.1,1.52 c -16.83,0 -16.83,0 -17.39,33.09 -0.56,33.09 -0.56,33.09 28.14,24.84"
           fill="#efefef"
           stroke="3f3f3f"
           stroke-width="1"
           id="path12294" /><path
           d="m 99.99,36.18 c 28.53,0.65 28.53,0.65 31.46,-0.82 2.94,-1.48 2.94,-1.48 0.41,-17.78 -2.53,-16.31 -2.53,-16.31 -28.95,-16.31 -26.43,0 -26.43,0 -28.94,17.13 -2.5,17.12 -2.5,17.12 26.02,17.78"
           fill="#efefef"
           stroke="3f3f3f"
           stroke-width="1"
           id="path12296" /><path
           d="m 358.33,50.64 c 8.86,15.61 8.86,15.61 15.96,12.35 7.09,-3.26 7.09,-3.26 7.55,-21.09 0.45,-17.83 0.45,-17.83 -2.62,-19.65 -3.06,-1.82 -3.06,-1.82 -16.4,5.48 -13.35,7.3 -13.35,7.3 -4.49,22.91"
           fill="#efefef"
           stroke="3f3f3f"
           stroke-width="1"
           id="path12298" /><path
           d="m 396.68,50.52 c 12.84,-9.05 12.84,-9.05 17.7,-22.8 4.87,-13.74 4.87,-13.74 3.86,-15.18 -1.02,-1.44 -1.02,-1.44 -17.77,4.89 -16.76,6.33 -16.76,6.33 -16.7,24.23 0.07,17.9 0.07,17.9 12.91,8.86"
           fill="#efefef"
           stroke="3f3f3f"
           stroke-width="1"
           id="path12300" /><path
           d="m 249.6,48.31 c 12.76,14.91 12.76,14.91 25.88,11.48 13.11,-3.42 13.11,-3.42 18.92,-19.7 5.8,-16.28 5.8,-16.28 2.87,-23.36 -2.93,-7.08 -2.93,-7.08 -31.68,4.8 C 236.84,33.4 236.84,33.4 249.6,48.31"
           fill="#efefef"
           stroke="3f3f3f"
           stroke-width="1"
           id="path12302" /><path
           d="m 422.35,54.1 c 11.42,12.46 11.42,12.46 17.71,-5.91 6.29,-18.37 6.29,-18.37 -6.55,-26.21 -12.84,-7.85 -12.84,-7.85 -17.71,5.9 -4.86,13.75 -4.86,13.75 6.55,26.22"
           fill="#efefef"
           stroke="3f3f3f"
           stroke-width="1"
           id="path12304" /><path
           d="m 327.81,36.19 c 0.11,2.36 0.11,2.36 13.05,24.55 12.94,22.18 12.94,22.18 18.95,14.02 6.02,-8.16 6.02,-8.16 -2.84,-23.77 -8.86,-15.61 -8.86,-15.61 -12.61,-17.71 -3.75,-2.11 -3.75,-2.11 -10.21,-0.78 -6.46,1.33 -6.46,1.33 -6.34,3.69"
           fill="#efefef"
           stroke="3f3f3f"
           stroke-width="1"
           id="path12306" /><path
           d="m 174.06,68.05 c 4.55,31.36 4.55,31.36 11.33,31.21 6.78,-0.16 6.78,-0.16 22.46,-34.54 15.68,-34.38 15.68,-34.38 8.12,-45.68 -7.57,-11.3 -7.57,-11.3 -21.95,-1.28 -14.38,10.02 -14.38,10.02 -19.44,14.48 -5.07,4.45 -5.07,4.45 -0.52,35.81"
           fill="#efefef"
           stroke="3f3f3f"
           stroke-width="1"
           id="path12308" /><path
           d="m 303.4,69.63 c 12.98,12.46 12.98,12.46 17.97,-9.18 4.99,-21.65 4.99,-21.65 4.88,-24.01 -0.11,-2.36 -0.11,-2.36 -12.16,-7.1 -12.06,-4.73 -12.06,-4.73 -17.87,11.54 -5.81,16.28 -5.81,16.28 7.18,28.75"
           fill="#efefef"
           stroke="3f3f3f"
           stroke-width="1"
           id="path12310" /><path
           d="m 80.13,58.23 c 8.24,20.35 8.24,20.35 19.59,16.65 11.35,-3.69 11.35,-3.69 19.9,-20.1 8.56,-16.4 8.56,-16.4 -19.59,-16.65 -28.15,-0.26 -28.15,-0.26 -19.9,20.1"
           fill="#efefef"
           stroke="3f3f3f"
           stroke-width="1"
           id="path12312" /><path
           d="m 785.45,73.88 c 13.47,0.07 13.47,0.07 13.47,-18.78 0,-18.85 0,-18.85 -18.91,-18.61 -18.91,0.23 -18.91,0.23 -13.47,18.78 5.44,18.54 5.44,18.54 18.91,18.61"
           fill="#efefef"
           stroke="3f3f3f"
           stroke-width="1"
           id="path12314" /><path
           d="m 408.86,75.36 c 23.19,14.12 23.19,14.12 23.74,3.35 0.54,-10.78 0.54,-10.78 -10.88,-23.25 -11.42,-12.47 -11.42,-12.47 -23.73,-3.35 -12.32,9.13 -12.32,9.13 10.87,23.25"
           fill="#efefef"
           stroke="3f3f3f"
           stroke-width="1"
           id="path12316" /><path
           d="m 324.76,91.47 c 6.22,7.2 6.22,7.2 8.75,7.73 2.54,0.52 2.54,0.52 9.69,-4.31 7.16,-4.84 7.16,-4.84 8.69,-7.53 1.52,-2.69 1.52,-2.69 -11.42,-24.88 -12.95,-22.19 -12.95,-22.19 -17.43,-0.2 -4.49,22 -4.49,22 1.72,29.19"
           fill="#efefef"
           stroke="3f3f3f"
           stroke-width="1"
           id="path12318" /><path
           d="m 157.34,90.18 c 12.99,12.63 12.99,12.63 16.22,11.3 3.22,-1.33 3.22,-1.33 -1.33,-32.69 -4.55,-31.36 -4.55,-31.36 -19.97,-32.15 -15.42,-0.78 -15.42,-0.78 -11.66,20.07 3.76,20.85 3.76,20.85 16.74,33.47"
           fill="#efefef"
           stroke="3f3f3f"
           stroke-width="1"
           id="path12320" /><path
           d="m 438.24,94.22 c 3.91,3.65 3.91,3.65 18.1,-4.75 14.19,-8.39 14.19,-8.39 22.16,-27.71 7.97,-19.32 7.97,-19.32 -7.36,-25.49 -15.33,-6.17 -15.33,-6.17 -19.49,-5.6 -4.16,0.57 -4.16,0.57 -10.45,18.95 -6.29,18.37 -6.29,18.37 -6.58,29.65 -0.3,11.29 -0.3,11.29 3.62,14.95"
           fill="#efefef"
           stroke="3f3f3f"
           stroke-width="1"
           id="path12322" /><path
           d="m 127.83,74.12 c 15.25,2.98 15.25,2.98 11.09,-17.4 -4.17,-20.38 -4.17,-20.38 -6.7,-19.38 -2.53,1 -2.53,1 -11.09,17.4 -8.56,16.41 -8.56,16.41 6.7,19.38"
           fill="#efefef"
           stroke="3f3f3f"
           stroke-width="1"
           id="path12324" /><path
           d="m 712.15,63.52 c 5.08,11.38 5.08,11.38 24.25,17.58 19.16,6.19 19.16,6.19 26.26,-0.33 7.1,-6.52 7.1,-6.52 1.57,-24.99 C 758.7,37.3 758.7,37.3 746.32,37.83 c -12.37,0.53 -12.37,0.53 -22.75,3.02 -10.37,2.49 -10.37,2.49 -13.44,6.9 -3.06,4.4 -3.06,4.4 2.02,15.77"
           fill="#efefef"
           stroke="3f3f3f"
           stroke-width="1"
           id="path12326" /><path
           d="m 518.2,49.57 c 2.59,16.27 2.59,16.27 5.13,21.66 2.54,5.39 2.54,5.39 37.38,5.12 34.85,-0.27 34.85,-0.27 4.68,-32.5 C 535.22,11.63 535.22,11.63 525.42,22.46 515.61,33.3 515.61,33.3 518.2,49.57"
           fill="#efefef"
           stroke="3f3f3f"
           stroke-width="1"
           id="path12328" /><path
           d="m 215.14,110.9 c 20.8,10.27 20.8,10.27 24.41,8.21 3.61,-2.06 3.61,-2.06 8.35,-12.97 4.74,-10.9 4.74,-10.9 8.57,-25.82 3.83,-14.92 3.83,-14.92 -8.93,-29.83 -12.76,-14.91 -12.76,-14.91 -17.3,-16.76 -4.54,-1.85 -4.54,-1.85 -20.23,32.53 -15.68,34.38 -15.68,34.38 5.13,44.64"
           fill="#efefef"
           stroke="3f3f3f"
           stroke-width="1"
           id="path12330" /><path
           d="m 483.28,83.59 c 9.08,1.98 9.08,1.98 22.17,-7.57 13.08,-9.55 13.08,-9.55 10.5,-25.82 -2.59,-16.27 -2.59,-16.27 -14.97,-12.05 -12.37,4.23 -12.37,4.23 -19.57,23.84 -7.2,19.62 -7.2,19.62 1.87,21.6"
           fill="#efefef"
           stroke="3f3f3f"
           stroke-width="1"
           id="path12332" /><path
           d="m 17.42,95.68 c 14.85,12.54 14.85,12.54 32.38,14.12 17.54,1.58 17.54,1.58 26.14,-9.6 8.6,-11.18 8.6,-11.18 9.31,-15.93 0.71,-4.75 0.71,-4.75 -7.91,-25.5 C 68.72,38.02 68.72,38.02 35.65,46.7 2.57,55.38 2.57,55.38 2.57,69.26 c 0,13.88 0,13.88 14.85,26.42"
           fill="#efefef"
           stroke="3f3f3f"
           stroke-width="1"
           id="path12334" /><path
           d="m 500.81,92.02 c 7.44,5.5 7.44,5.5 14.85,2.11 7.41,-3.39 7.41,-3.39 8.19,-9.66 0.77,-6.28 0.77,-6.28 -1.77,-11.67 -2.53,-5.39 -2.53,-5.39 -15.62,4.16 -13.09,9.55 -13.09,9.55 -5.65,15.06"
           fill="#efefef"
           stroke="3f3f3f"
           stroke-width="1"
           id="path12336" /><path
           d="m 284.29,88.73 c 29.42,-6.23 29.42,-6.23 16.95,-18.35 -12.48,-12.12 -12.48,-12.12 -25.59,-8.69 -13.11,3.43 -13.11,3.43 -16.94,18.34 -3.84,14.92 -3.84,14.92 25.58,8.7"
           fill="#efefef"
           stroke="3f3f3f"
           stroke-width="1"
           id="path12338" /><path
           d="m 111.61,100.88 c 22.99,10.9 22.99,10.9 35.98,11.07 12.98,0.16 12.98,0.16 16.76,-3.17 3.79,-3.33 3.79,-3.33 -8.66,-16.53 -12.44,-13.21 -12.44,-13.21 -27.7,-16.18 -15.26,-2.98 -15.26,-2.98 -26.6,0.72 -11.35,3.7 -11.35,3.7 -12.06,8.45 -0.71,4.75 -0.71,4.75 22.28,15.64"
           fill="#efefef"
           stroke="3f3f3f"
           stroke-width="1"
           id="path12340" /><path
           d="m 531.34,97.73 c 5.75,6.76 5.75,6.76 34.47,3.41 28.73,-3.35 28.73,-3.35 32.72,-11.21 3.99,-7.86 3.99,-7.86 1.14,-9.96 -2.85,-2.1 -2.85,-2.1 -37.69,-1.82 -34.85,0.27 -34.85,0.27 -35.62,6.54 -0.78,6.28 -0.78,6.28 4.98,13.04"
           fill="#efefef"
           stroke="3f3f3f"
           stroke-width="1"
           id="path12342" /><path
           d="m 371.13,98.11 c 18.23,8.11 18.23,8.11 39.12,0.67 20.88,-7.44 20.88,-7.44 -3.08,-22.15 C 383.2,61.92 383.2,61.92 375.59,65.1 c -7.62,3.19 -7.62,3.19 -13.63,11.35 -6.01,8.17 -6.01,8.17 -7.54,10.86 -1.52,2.69 -1.52,2.69 16.71,10.8"
           fill="#efefef"
           stroke="3f3f3f"
           stroke-width="1"
           id="path12344" /><path
           d="m 643.95,96.21 c 19.92,20.49 19.92,20.49 31.8,18.96 11.87,-1.53 11.87,-1.53 17.47,-8.62 5.59,-7.09 5.59,-7.09 12.87,-19.16 7.29,-12.06 7.29,-12.06 2.67,-23.1 -4.61,-11.04 -4.61,-11.04 -13.77,-10.78 -9.16,0.27 -9.16,0.27 -37.87,8.52 -28.71,8.26 -28.71,8.26 -30.9,10.98 -2.18,2.71 -2.18,2.71 17.73,23.2"
           fill="#efefef"
           stroke="3f3f3f"
           stroke-width="1"
           id="path12346" /><path
           d="m 267.41,120.71 c 21.42,2.67 21.42,2.67 41.38,-9.23 19.96,-11.9 19.96,-11.9 13.24,-19.45 -6.72,-7.54 -6.72,-7.54 -36.65,-1.66 -29.93,5.88 -29.93,5.88 -34.66,16.78 -4.74,10.9 -4.74,10.9 16.69,13.56"
           fill="#efefef"
           stroke="3f3f3f"
           stroke-width="1"
           id="path12348" /><path
           d="m 758.19,90.8 c 0.46,2.02 0.46,2.02 20.56,13.97 20.11,11.96 20.11,11.96 20.11,-8.47 0,-20.42 0,-20.42 -13.47,-20.49 -13.47,-0.07 -13.47,-0.07 -20.57,6.45 -7.1,6.52 -7.1,6.52 -6.63,8.54"
           fill="#efefef"
           stroke="3f3f3f"
           stroke-width="1"
           id="path12350" /><path
           d="m 484.94,95.77 c 9.09,12.08 9.09,12.08 15.7,7.31 6.61,-4.78 6.61,-4.78 -0.79,-10.4 -7.4,-5.62 -7.4,-5.62 -15.7,-7.3 -8.31,-1.68 -8.31,-1.68 0.79,10.39"
           fill="#efefef"
           stroke="3f3f3f"
           stroke-width="1"
           id="path12352" /><path
           d="m 444.38,106.8 c 1.28,7.04 1.28,7.04 14.27,11.56 12.99,4.52 12.99,4.52 21.94,1.89 8.95,-2.63 8.95,-2.63 10.56,-7.29 1.6,-4.65 1.6,-4.65 -7.49,-16.73 -9.09,-12.07 -9.09,-12.07 -10.63,-12.67 -1.55,-0.6 -1.55,-0.6 -15.74,7.8 -14.19,8.4 -14.19,8.4 -12.91,15.44"
           fill="#efefef"
           stroke="3f3f3f"
           stroke-width="1"
           id="path12354" /><path
           d="m 726.23,105.3 c 7.67,27.23 7.67,27.23 8.92,30.5 1.26,3.28 1.26,3.28 8.51,-1.66 7.25,-4.93 7.25,-4.93 10.25,-22.62 2.99,-17.68 2.99,-17.68 2.52,-19.7 -0.47,-2.02 -0.47,-2.02 -19.16,-7.89 -18.7,-5.86 -18.7,-5.86 -11.04,21.37"
           fill="#efefef"
           stroke="3f3f3f"
           stroke-width="1"
           id="path12356" /><path
           d="m 514.36,127.91 c 2.27,2.5 2.27,2.5 6.4,1.9 4.13,-0.6 4.13,-0.6 9.09,-12.38 4.96,-11.79 4.96,-11.79 -0.79,-18.55 -5.76,-6.76 -5.76,-6.76 -13.21,-3.26 -7.45,3.51 -7.45,3.51 -5.61,16.65 1.85,13.14 1.85,13.14 4.12,15.64"
           fill="#efefef"
           stroke="3f3f3f"
           stroke-width="1"
           id="path12358" /><path
           d="m 501.16,121.77 c 10.06,3.71 10.06,3.71 8.18,-9.32 -1.88,-13.02 -1.88,-13.02 -8.45,-8.37 -6.58,4.66 -6.58,4.66 -8.18,9.32 -1.61,4.65 -1.61,4.65 8.45,8.37"
           fill="#efefef"
           stroke="3f3f3f"
           stroke-width="1"
           id="path12360" /><path
           d="m 775.76,132.1 c 23.1,2.44 23.1,2.44 23.1,-5.73 0,-8.18 0,-8.18 -20.1,-20.14 -20.1,-11.95 -20.1,-11.95 -23.1,5.73 -2.99,17.69 -2.99,17.69 20.1,20.14"
           fill="#efefef"
           stroke="3f3f3f"
           stroke-width="1"
           id="path12362" /><path
           d="m 716.73,115.99 c 15.89,15.83 15.89,15.83 7.76,-11.73 -8.14,-27.56 -8.14,-27.56 -15.89,-15.83 -7.75,11.73 -7.75,11.73 8.13,27.56"
           fill="#efefef"
           stroke="3f3f3f"
           stroke-width="1"
           id="path12364" /><path
           d="m 698.77,125.71 c 9.14,9.73 9.14,9.73 20.06,16.22 10.92,6.49 10.92,6.49 13.6,2.29 2.68,-4.2 2.68,-4.2 1.42,-7.48 -1.26,-3.27 -1.26,-3.27 -17.14,-19.11 -15.89,-15.83 -15.89,-15.83 -21.48,-8.73 -5.6,7.09 -5.6,7.09 3.54,16.81"
           fill="#efefef"
           stroke="3f3f3f"
           stroke-width="1"
           id="path12366" /><path
           d="m 77.44,131.47 c 8.01,18.03 8.01,18.03 31.59,-0.28 23.59,-18.31 23.59,-18.31 0.59,-29.2 -22.99,-10.9 -22.99,-10.9 -31.59,0.28 -8.6,11.18 -8.6,11.18 -0.59,29.2"
           fill="#efefef"
           stroke="3f3f3f"
           stroke-width="1"
           id="path12368" /><path
           d="m 542.63,140.1 c 15.49,10.31 15.49,10.31 22.13,7.19 6.65,-3.12 6.65,-3.12 17.24,-19.87 10.59,-16.74 10.59,-16.74 11.55,-22.32 0.96,-5.57 0.96,-5.57 -27.76,-2.22 -28.72,3.36 -28.72,3.36 -33.69,15.14 -4.96,11.78 -4.96,11.78 10.53,22.08"
           fill="#efefef"
           stroke="3f3f3f"
           stroke-width="1"
           id="path12370" /><path
           d="m 340.4,110.35 c 2.85,9.17 2.85,9.17 25.2,12.69 22.34,3.52 22.34,3.52 22.53,-5.9 0.2,-9.41 0.2,-9.41 -18.04,-17.52 -18.23,-8.11 -18.23,-8.11 -25.39,-3.27 -7.15,4.83 -7.15,4.83 -4.3,14"
           fill="#efefef"
           stroke="3f3f3f"
           stroke-width="1"
           id="path12372" /><path
           d="m 399.49,139.56 c 8.81,12.48 8.81,12.48 11.12,12.33 2.31,-0.14 2.31,-0.14 14.04,-9.16 11.72,-9.01 11.72,-9.01 15.11,-18.49 3.39,-9.47 3.39,-9.47 2.11,-16.51 -1.28,-7.04 -1.28,-7.04 -4.95,-10.18 -3.66,-3.14 -3.66,-3.14 -24.79,3.79 -21.13,6.93 -21.13,6.93 -21.29,16.33 -0.16,9.41 -0.16,9.41 8.65,21.89"
           fill="#efefef"
           stroke="3f3f3f"
           stroke-width="1"
           id="path12374" /><path
           d="m 345.5,134.35 c 2.57,13.83 2.57,13.83 22.3,3.52 19.73,-10.31 19.73,-10.31 -2.57,-13.83 -22.31,-3.53 -22.31,-3.53 -19.73,10.31"
           fill="#efefef"
           stroke="3f3f3f"
           stroke-width="1"
           id="path12376" /><path
           d="m 483.9,138.41 c 10.84,14.05 10.84,14.05 14.92,12.28 4.08,-1.76 4.08,-1.76 10.44,-10.46 6.36,-8.7 6.36,-8.7 4.09,-11.2 -2.28,-2.5 -2.28,-2.5 -12.34,-6.22 -10.06,-3.71 -10.06,-3.71 -19.01,-1.08 -8.95,2.63 -8.95,2.63 1.9,16.68"
           fill="#efefef"
           stroke="3f3f3f"
           stroke-width="1"
           id="path12378" /><path
           d="m 612.41,133.5 c 16.79,23.39 16.79,23.39 32.09,15.42 15.31,-7.96 15.31,-7.96 16.06,-19.34 C 661.3,118.2 661.3,118.2 641.38,97.71 621.46,77.22 621.46,77.22 613.5,80.24 c -7.96,3.01 -7.96,3.01 -11.95,10.87 -3.99,7.86 -3.99,7.86 -4.96,13.43 -0.96,5.57 -0.96,5.57 15.82,28.96"
           fill="#efefef"
           stroke="3f3f3f"
           stroke-width="1"
           id="path12380" /><path
           d="M 12.04,150.85 C 23.4,141.94 23.4,141.94 26.89,126.31 30.38,110.68 30.38,110.68 15.53,98.14 0.68,85.6 0.68,85.6 0.68,122.68 c 0,37.08 0,37.08 11.36,28.17"
           fill="#efefef"
           stroke="3f3f3f"
           stroke-width="1"
           id="path12382" /><path
           d="m 349.54,154.49 c 0.73,5.46 0.73,5.46 18.77,7.52 18.03,2.05 18.03,2.05 27.87,-3.3 9.85,-5.36 9.85,-5.36 1,-17.84 -8.85,-12.47 -8.85,-12.47 -28.61,-2.16 -19.77,10.32 -19.77,10.32 -19.03,15.78"
           fill="#efefef"
           stroke="3f3f3f"
           stroke-width="1"
           id="path12384" /><path
           d="m 88.82,167.85 c 1.92,16.77 1.92,16.77 13.45,13.09 11.54,-3.69 11.54,-3.69 29.5,-18.71 17.96,-15.02 17.96,-15.02 23.11,-31.23 5.15,-16.21 5.15,-16.21 -7.83,-16.38 -12.98,-0.17 -12.98,-0.17 -36.57,18.14 -23.58,18.31 -23.58,18.31 -21.66,35.09"
           fill="#efefef"
           stroke="3f3f3f"
           stroke-width="1"
           id="path12386" /><path
           d="m 666.85,147.64 c 4.35,5.62 4.35,5.62 21.76,-3.19 17.42,-8.81 17.42,-8.81 8.28,-18.53 -9.14,-9.73 -9.14,-9.73 -21.02,-8.2 -11.87,1.53 -11.87,1.53 -12.62,12.91 -0.74,11.39 -0.74,11.39 3.6,17.01"
           fill="#efefef"
           stroke="3f3f3f"
           stroke-width="1"
           id="path12388" /><path
           d="m 298.91,148.39 c 8.38,22.96 8.38,22.96 9.9,24.39 1.53,1.44 1.53,1.44 8.03,2.25 6.5,0.82 6.5,0.82 18.28,-7.49 11.78,-8.31 11.78,-8.31 11.52,-13.58 -0.25,-5.27 -0.25,-5.27 -2.83,-19.11 -2.57,-13.83 -2.57,-13.83 -5.43,-23 -2.85,-9.16 -2.85,-9.16 -5.39,-9.69 -2.53,-0.52 -2.53,-0.52 -22.49,11.38 -19.96,11.9 -19.96,11.9 -11.59,34.85"
           fill="#efefef"
           stroke="3f3f3f"
           stroke-width="1"
           id="path12390" /><path
           d="m 50.02,170.13 c 24.03,26.58 24.03,26.58 29.38,23.24 5.35,-3.35 5.35,-3.35 6.92,-5.85 1.56,-2.49 1.56,-2.49 -0.36,-19.27 -1.92,-16.77 -1.92,-16.77 -9.93,-34.79 -8,-18.03 -8,-18.03 -25.54,-19.61 -17.53,-1.57 -17.53,-1.57 -21.02,14.06 -3.49,15.63 -3.49,15.63 20.55,42.22"
           fill="#efefef"
           stroke="3f3f3f"
           stroke-width="1"
           id="path12392" /><path
           d="m 455.8,156.99 c 16.99,22.15 16.99,22.15 24.17,14.24 7.18,-7.9 7.18,-7.9 10.23,-13.05 3.05,-5.15 3.05,-5.15 -7.8,-19.2 -10.84,-14.05 -10.84,-14.05 -23.83,-18.57 -12.99,-4.52 -12.99,-4.52 -16.38,4.95 -3.39,9.48 -3.39,9.48 13.61,31.63"
           fill="#efefef"
           stroke="3f3f3f"
           stroke-width="1"
           id="path12394" /><path
           d="m 682.24,177.6 c 9.65,22.33 9.65,22.33 17.57,22.47 7.93,0.14 7.93,0.14 17.95,-0.92 10.03,-1.05 10.03,-1.05 10.77,-24.78 0.73,-23.73 0.73,-23.73 -10.19,-30.22 -10.92,-6.49 -10.92,-6.49 -28.34,2.32 -17.41,8.81 -17.41,8.81 -7.76,31.13"
           fill="#efefef"
           stroke="3f3f3f"
           stroke-width="1"
           id="path12396" /><path
           d="m 734.7,200.78 c 4.48,2.76 4.48,2.76 11.16,4.67 6.69,1.92 6.69,1.92 29.28,0.37 22.59,-1.56 22.59,-1.56 22.59,-35.1 0,-33.54 0,-33.54 -23.09,-35.99 -23.1,-2.45 -23.1,-2.45 -30.35,2.49 -7.25,4.94 -7.25,4.94 -9.92,9.13 -2.68,4.2 -2.68,4.2 -3.41,27.93 -0.74,23.73 -0.74,23.73 3.74,26.5"
           fill="#efefef"
           stroke="3f3f3f"
           stroke-width="1"
           id="path12398" /><path
           d="m 201.06,179.17 c 5.33,2.19 5.33,2.19 19.09,-19.98 13.76,-22.18 13.76,-22.18 13.85,-28.87 0.08,-6.7 0.08,-6.7 -20.73,-16.97 -20.8,-10.26 -20.8,-10.26 -27.58,-10.1 -6.78,0.15 -6.78,0.15 -10.55,2.06 -3.76,1.91 -3.76,1.91 8.41,36.79 12.18,34.88 12.18,34.88 17.51,37.07"
           fill="#efefef"
           stroke="3f3f3f"
           stroke-width="1"
           id="path12400" /><path
           d="m 520.48,162.56 c 15.95,12.71 15.95,12.71 20.05,11.39 4.09,-1.31 4.09,-1.31 10.02,-11.71 5.93,-10.4 5.93,-10.4 -9.55,-20.7 -15.49,-10.3 -15.49,-10.3 -19.62,-9.7 -4.12,0.61 -4.12,0.61 -10.49,9.31 -6.36,8.7 -6.36,8.7 9.59,21.41"
           fill="#efefef"
           stroke="3f3f3f"
           stroke-width="1"
           id="path12402" /><path
           d="m 247.65,150.7 c 10.56,13.17 10.56,13.17 33.49,16.86 22.93,3.7 22.93,3.7 14.56,-19.26 -8.38,-22.96 -8.38,-22.96 -29.8,-25.62 -21.43,-2.67 -21.43,-2.67 -25.04,-0.6 -3.61,2.06 -3.61,2.06 -3.69,8.75 -0.09,6.7 -0.09,6.7 10.48,19.87"
           fill="#efefef"
           stroke="3f3f3f"
           stroke-width="1"
           id="path12404" /><path
           d="m 161.42,158.14 c 9.21,10.89 9.21,10.89 16.11,14.47 6.89,3.57 6.89,3.57 11.9,4.45 5.01,0.88 5.01,0.88 -7.71,-33.42 C 169,109.33 169,109.33 165.76,112.08 c -3.25,2.75 -3.25,2.75 -8.4,18.97 -5.15,16.21 -5.15,16.21 4.06,27.09"
           fill="#efefef"
           stroke="3f3f3f"
           stroke-width="1"
           id="path12406" /><path
           d="m 582.83,158.9 c 9.4,12.81 9.4,12.81 19.57,22.7 10.18,9.89 10.18,9.89 15.1,9.32 4.91,-0.57 4.91,-0.57 7.79,-16.06 2.88,-15.49 2.88,-15.49 -13.9,-38.88 -16.78,-23.38 -16.78,-23.38 -27.37,-6.63 -10.59,16.75 -10.59,16.75 -1.19,29.55"
           fill="#efefef"
           stroke="3f3f3f"
           stroke-width="1"
           id="path12408" /><path
           d="m 27.75,213.32 c 25.94,2.82 25.94,2.82 30.62,-1.12 4.67,-3.93 4.67,-3.93 9.45,-8.86 4.77,-4.93 4.77,-4.93 -19.26,-31.52 -24.03,-26.59 -24.03,-26.59 -35.39,-17.68 -11.36,8.91 -11.36,8.91 -11.36,32.63 0,23.73 0,23.73 25.94,26.55"
           fill="#efefef"
           stroke="3f3f3f"
           stroke-width="1"
           id="path12410" /><path
           d="m 642.62,202.16 c 17.6,11.04 17.6,11.04 32.18,4.5 14.59,-6.54 14.59,-6.54 4.94,-28.87 -9.65,-22.33 -9.65,-22.33 -14,-27.95 -4.34,-5.62 -4.34,-5.62 -19.65,2.34 -15.3,7.96 -15.3,7.96 -18.18,23.45 -2.88,15.49 -2.88,15.49 14.71,26.53"
           fill="#efefef"
           stroke="3f3f3f"
           stroke-width="1"
           id="path12412" /><path
           d="m 508.7,173.35 c 19.46,9 19.46,9 23.08,5.79 3.63,-3.21 3.63,-3.21 -12.32,-15.92 -15.95,-12.71 -15.95,-12.71 -20.03,-10.94 -4.07,1.76 -4.07,1.76 -7.12,6.91 -3.06,5.15 -3.06,5.15 16.39,14.16"
           fill="#efefef"
           stroke="3f3f3f"
           stroke-width="1"
           id="path12414" /><path
           d="m 419.82,167.66 c 5.57,13.42 5.57,13.42 21.13,21.15 15.57,7.72 15.57,7.72 22.79,3.42 7.23,-4.29 7.23,-4.29 7.59,-8 0.35,-3.71 0.35,-3.71 -16.64,-25.86 -16.99,-22.16 -16.99,-22.16 -28.72,-13.14 -11.72,9.01 -11.72,9.01 -6.15,22.43"
           fill="#efefef"
           stroke="3f3f3f"
           stroke-width="1"
           id="path12416" /><path
           d="m 132.82,185.28 c 17.81,6.83 17.81,6.83 27.17,-4.13 9.36,-10.96 9.36,-10.96 0.15,-21.85 -9.21,-10.88 -9.21,-10.88 -27.18,4.14 -17.96,15.02 -17.96,15.02 -0.14,21.84"
           fill="#efefef"
           stroke="3f3f3f"
           stroke-width="1"
           id="path12418" /><path
           d="m 489.47,200.62 c 16.11,12 16.11,12 26.99,-2.61 10.87,-14.62 10.87,-14.62 -8.58,-23.62 -19.46,-9.01 -19.46,-9.01 -26.63,-1.11 -7.18,7.91 -7.18,7.91 -7.54,11.62 -0.36,3.71 -0.36,3.71 15.76,15.72"
           fill="#efefef"
           stroke="3f3f3f"
           stroke-width="1"
           id="path12420" /><path
           d="m 547.49,175.45 c 1.27,1.95 1.27,1.95 7.9,9.79 6.64,7.83 6.64,7.83 20.71,-2.67 14.07,-10.5 14.07,-10.5 4.67,-23.3 -9.4,-12.81 -9.4,-12.81 -16.04,-9.69 -6.65,3.11 -6.65,3.11 -12.58,13.51 -5.93,10.4 -5.93,10.4 -4.66,12.36"
           fill="#efefef"
           stroke="3f3f3f"
           stroke-width="1"
           id="path12422" /><path
           d="m 259.76,188.82 c 0.33,22.8 0.33,22.8 18.3,11.83 17.98,-10.98 17.98,-10.98 23.37,-18.39 5.39,-7.42 5.39,-7.42 -18.3,-11.83 -23.7,-4.41 -23.7,-4.41 -23.37,18.39"
           fill="#efefef"
           stroke="3f3f3f"
           stroke-width="1"
           id="path12424" /><path
           d="m 209.23,188.77 c 0.87,4.66 0.87,4.66 24.27,14.46 23.41,9.79 23.41,9.79 23.46,-13.67 0.06,-23.46 0.06,-23.46 -10.51,-36.63 -10.56,-13.17 -10.56,-13.17 -24.33,9 -13.76,22.18 -13.76,22.18 -12.89,26.84"
           fill="#efefef"
           stroke="3f3f3f"
           stroke-width="1"
           id="path12426" /><path
           d="m 390.52,186.12 c 2.68,20.54 2.68,20.54 6.26,24.11 3.58,3.57 3.58,3.57 15.04,-12.62 11.47,-16.19 11.47,-16.19 5.9,-29.61 -5.57,-13.42 -5.57,-13.42 -7.88,-13.27 -2.31,0.15 -2.31,0.15 -12.16,5.5 -9.84,5.36 -9.84,5.36 -7.16,25.89"
           fill="#efefef"
           stroke="3f3f3f"
           stroke-width="1"
           id="path12428" /><path
           d="m 155.27,196.41 c 3.64,3.65 3.64,3.65 16.25,-7.38 12.6,-11.03 12.6,-11.03 5.71,-14.61 -6.89,-3.58 -6.89,-3.58 -16.25,7.38 -9.36,10.96 -9.36,10.96 -5.71,14.61"
           fill="#efefef"
           stroke="3f3f3f"
           stroke-width="1"
           id="path12430" /><path
           d="m 565.9,198.97 c 2.67,4.67 2.67,4.67 17.59,4.98 14.91,0.31 14.91,0.31 21.57,-5.28 6.66,-5.59 6.66,-5.59 -3.52,-15.48 -10.17,-9.89 -10.17,-9.89 -24.25,0.61 -14.07,10.49 -14.07,10.49 -11.39,15.17"
           fill="#efefef"
           stroke="3f3f3f"
           stroke-width="1"
           id="path12432" /><path
           d="m 360.49,183.3 c 9.23,21.17 9.23,21.17 20.24,22.4 11.01,1.23 11.01,1.23 8.33,-19.31 -2.68,-20.54 -2.68,-20.54 -20.24,-22.4 -17.55,-1.86 -17.55,-1.86 -8.33,19.31"
           fill="#efefef"
           stroke="3f3f3f"
           stroke-width="1"
           id="path12434" /><path
           d="m 160.93,203.11 c 0.96,2.51 0.96,2.51 11.59,9.32 10.62,6.81 10.62,6.81 19.31,-0.01 8.7,-6.81 8.7,-6.81 12.23,-12.62 3.53,-5.81 3.53,-5.81 2.66,-10.47 -0.87,-4.66 -0.87,-4.66 -6.19,-6.85 -5.33,-2.19 -5.33,-2.19 -10.34,-3.07 -5.01,-0.88 -5.01,-0.88 -17.61,10.15 -12.61,11.03 -12.61,11.03 -11.65,13.55"
           fill="#efefef"
           stroke="3f3f3f"
           stroke-width="1"
           id="path12436" /><path
           d="m 325.62,183.3 c 1.34,5.16 1.34,5.16 9.02,13.8 7.68,8.64 7.68,8.64 12.68,13.38 5,4.75 5,4.75 12.94,-0.55 7.94,-5.3 7.94,-5.3 -1.76,-26.66 -9.7,-21.37 -9.7,-21.37 -21.96,-13.25 -12.26,8.12 -12.26,8.12 -10.92,13.28"
           fill="#efefef"
           stroke="3f3f3f"
           stroke-width="1"
           id="path12438" /><path
           d="m 405.07,225.84 c 3.74,9.77 3.74,9.77 8.55,14.98 4.81,5.21 4.81,5.21 9.04,6.26 4.23,1.05 4.23,1.05 6.43,-1.07 2.19,-2.12 2.19,-2.12 14.25,-24.5 12.06,-22.39 12.06,-22.39 -3.5,-30.11 -15.56,-7.72 -15.56,-7.72 -27.03,8.47 -11.47,16.19 -11.47,16.19 -7.74,25.97"
           fill="#efefef"
           stroke="3f3f3f"
           stroke-width="1"
           id="path12440" /><path
           d="m 510.19,222.41 c 2.83,8.86 2.83,8.86 5.79,12.75 2.96,3.89 2.96,3.89 12.07,3.65 9.12,-0.24 9.12,-0.24 14.08,-29.93 4.95,-29.69 4.95,-29.69 3.68,-31.65 -1.27,-1.96 -1.27,-1.96 -5.36,-0.64 -4.1,1.31 -4.1,1.31 -7.72,4.52 -3.63,3.22 -3.63,3.22 -14.5,17.83 -10.87,14.61 -10.87,14.61 -8.04,23.47"
           fill="#efefef"
           stroke="3f3f3f"
           stroke-width="1"
           id="path12442" /><path
           d="m 542.11,239.14 c 3.8,0.25 3.8,0.25 14.27,-17.18 10.47,-17.43 10.47,-17.43 7.79,-22.1 -2.67,-4.68 -2.67,-4.68 -9.31,-12.51 -6.63,-7.83 -6.63,-7.83 -11.59,21.86 -4.95,29.69 -4.95,29.69 -1.16,29.93"
           fill="#efefef"
           stroke="3f3f3f"
           stroke-width="1"
           id="path12444" /><path
           d="m 105.74,207.57 c 17.76,15.44 17.76,15.44 34.98,7.29 17.21,-8.15 17.21,-8.15 16.79,-11.14 -0.41,-2.99 -0.41,-2.99 -4.06,-6.64 -3.64,-3.65 -3.64,-3.65 -21.46,-10.48 -17.82,-6.82 -17.82,-6.82 -29.35,-3.14 -11.53,3.69 -11.53,3.69 -13.09,6.18 -1.57,2.49 -1.57,2.49 16.19,17.93"
           fill="#efefef"
           stroke="3f3f3f"
           stroke-width="1"
           id="path12446" /><path
           d="m 300.48,213.01 c 3.18,22.23 3.18,22.23 8.06,21.41 4.88,-0.81 4.88,-0.81 10.81,-22.94 5.93,-22.13 5.93,-22.13 4.59,-27.29 -1.35,-5.16 -1.35,-5.16 -7.85,-5.98 -6.5,-0.81 -6.5,-0.81 -12.65,5.88 -6.15,6.7 -6.15,6.7 -2.96,28.92"
           fill="#efefef"
           stroke="3f3f3f"
           stroke-width="1"
           id="path12448" /><path
           d="m 266.25,244.36 c 3.63,2.82 3.63,2.82 19.02,-2.55 15.38,-5.37 15.38,-5.37 12.78,-27.64 -2.61,-22.28 -2.61,-22.28 -20.97,-10.64 -18.37,11.64 -18.37,11.64 -16.41,24.82 1.96,13.19 1.96,13.19 5.58,16.01"
           fill="#efefef"
           stroke="3f3f3f"
           stroke-width="1"
           id="path12450" /><path
           d="m 317.45,235.61 c 3.28,1.44 3.28,1.44 13.6,-13.49 10.32,-14.93 10.32,-14.93 2.64,-23.57 -7.67,-8.64 -7.67,-8.64 -13.6,13.49 -5.93,22.13 -5.93,22.13 -2.64,23.57"
           fill="#efefef"
           stroke="3f3f3f"
           stroke-width="1"
           id="path12452" /><path
           d="m 128.29,230.25 c 4.21,6.04 4.21,6.04 13.99,-0.9 9.79,-6.93 9.79,-6.93 12.46,-13.7 2.68,-6.77 2.68,-6.77 -13.99,0.9 -16.67,7.67 -16.67,7.67 -12.46,13.7"
           fill="#efefef"
           stroke="3f3f3f"
           stroke-width="1"
           id="path12454" /><path
           d="m 329.42,241.25 c 7.95,3.57 7.95,3.57 15.14,-5.86 7.18,-9.44 7.18,-9.44 7.37,-13.76 0.18,-4.31 0.18,-4.31 -4.82,-9.06 -5,-4.74 -5,-4.74 -15.32,10.19 -10.32,14.93 -10.32,14.93 -2.37,18.49"
           fill="#efefef"
           stroke="3f3f3f"
           stroke-width="1"
           id="path12456" /><path
           d="m 367.47,230.55 c 13.77,5.05 13.77,5.05 26.45,4.96 12.67,-0.1 12.67,-0.1 8.94,-9.88 -3.73,-9.77 -3.73,-9.77 -7.31,-13.34 -3.58,-3.57 -3.58,-3.57 -14.59,-4.8 -11.01,-1.23 -11.01,-1.23 -18.95,4.07 -7.94,5.3 -7.94,5.3 -8.12,9.62 -0.19,4.32 -0.19,4.32 13.58,9.37"
           fill="#efefef"
           stroke="3f3f3f"
           stroke-width="1"
           id="path12458" /><path
           d="m 560.45,248.77 c 13.36,8.47 13.36,8.47 22.42,-0.11 9.06,-8.58 9.06,-8.58 12.03,-25.59 2.96,-17 2.96,-17 -11.96,-17.31 -14.91,-0.31 -14.91,-0.31 -25.38,17.12 -10.47,17.42 -10.47,17.42 2.89,25.89"
           fill="#efefef"
           stroke="3f3f3f"
           stroke-width="1"
           id="path12460" /><path
           d="m 165.38,229.94 c 12.06,7.72 12.06,7.72 14.39,-0.91 2.32,-8.64 2.32,-8.64 -8.3,-15.45 -10.62,-6.8 -10.62,-6.8 -11.71,-5.85 -1.09,0.96 -1.09,0.96 -3.77,7.73 -2.68,6.77 -2.68,6.77 9.39,14.48"
           fill="#efefef"
           stroke="3f3f3f"
           stroke-width="1"
           id="path12462" /><path
           d="m 472.12,237.62 c 38.23,-5.82 38.23,-5.82 35.4,-14.67 -2.83,-8.86 -2.83,-8.86 -18.94,-20.86 -16.12,-12.01 -16.12,-12.01 -23.35,-7.71 -7.22,4.29 -7.22,4.29 -19.28,26.68 -12.06,22.38 -12.06,22.38 26.17,16.56"
           fill="#efefef"
           stroke="3f3f3f"
           stroke-width="1"
           id="path12464" /><path
           d="m 213,227.3 c 10.32,20.43 10.32,20.43 28.89,17.17 18.58,-3.25 18.58,-3.25 16.24,-15.77 -2.34,-12.53 -2.34,-12.53 -25.37,-22.98 -23.02,-10.46 -23.02,-10.46 -26.55,-4.65 -3.54,5.81 -3.54,5.81 6.79,26.23"
           fill="#efefef"
           stroke="3f3f3f"
           stroke-width="1"
           id="path12466" /><path
           d="m 138.69,249.71 c 5.57,12.01 5.57,12.01 7.76,13.93 2.18,1.93 2.18,1.93 14.09,1.22 11.92,-0.71 11.92,-0.71 14.09,-13.15 2.18,-12.45 2.18,-12.45 -9.89,-20.17 -12.06,-7.71 -12.06,-7.71 -21.84,-0.78 -9.79,6.94 -9.79,6.94 -4.21,18.95"
           fill="#efefef"
           stroke="3f3f3f"
           stroke-width="1"
           id="path12468" /><path
           d="m 611.22,241.51 c 16.86,1.98 16.86,1.98 28.38,-0.3 11.52,-2.28 11.52,-2.28 15.27,-14.12 3.76,-11.83 3.76,-11.83 -13.84,-22.87 -17.6,-11.04 -17.6,-11.04 -22.52,-10.47 -4.92,0.57 -4.92,0.57 -11.57,6.16 -6.66,5.6 -6.66,5.6 -9.62,22.6 -2.96,17.01 -2.96,17.01 13.9,19"
           fill="#efefef"
           stroke="3f3f3f"
           stroke-width="1"
           id="path12470" /><path
           d="m 181.49,268.17 c 7.17,4.46 7.17,4.46 23.52,-7.47 16.35,-11.93 16.35,-11.93 6.03,-32.36 -10.33,-20.43 -10.33,-20.43 -19.02,-13.61 -8.69,6.81 -8.69,6.81 -11.02,15.45 -2.32,8.64 -2.32,8.64 -4.5,21.08 -2.17,12.45 -2.17,12.45 4.99,16.91"
           fill="#efefef"
           stroke="3f3f3f"
           stroke-width="1"
           id="path12472" /><path
           d="m 347.91,248.8 c 8.63,3.85 8.63,3.85 20.42,-4.18 11.79,-8.04 11.79,-8.04 -1.98,-13.09 -13.77,-5.06 -13.77,-5.06 -20.41,4.18 -6.65,9.23 -6.65,9.23 1.97,13.09"
           fill="#efefef"
           stroke="3f3f3f"
           stroke-width="1"
           id="path12474" /><path
           d="m 89.85,234.27 c 23.36,24.21 23.36,24.21 37.68,25.21 14.31,0.99 14.31,0.99 8.73,-11.02 -5.57,-12.01 -5.57,-12.01 -9.78,-18.04 -4.21,-6.04 -4.21,-6.04 -21.97,-21.47 -17.76,-15.44 -17.76,-15.44 -23.11,-12.09 -5.35,3.35 -5.35,3.35 -10.13,8.28 -4.78,4.93 -4.78,4.93 18.58,29.13"
           fill="#efefef"
           stroke="3f3f3f"
           stroke-width="1"
           id="path12476" /><path
           d="m 366.17,263.61 c 8.23,10.11 8.23,10.11 9.8,10.82 1.58,0.71 1.58,0.71 4.05,0.5 2.47,-0.21 2.47,-0.21 19.48,-13.74 17,-13.54 17,-13.54 12.19,-18.75 -4.81,-5.21 -4.81,-5.21 -17.48,-5.11 -12.68,0.1 -12.68,0.1 -24.47,8.13 -11.79,8.04 -11.79,8.04 -3.57,18.15"
           fill="#efefef"
           stroke="3f3f3f"
           stroke-width="1"
           id="path12478" /><path
           d="m 434.8,259.85 c 5.64,10.15 5.64,10.15 11.99,13.59 6.36,3.44 6.36,3.44 31.35,2.49 24.99,-0.94 24.99,-0.94 31.4,-17.63 6.41,-16.69 6.41,-16.69 3.45,-20.58 -2.96,-3.89 -2.96,-3.89 -41.2,1.93 -38.23,5.81 -38.23,5.81 -40.43,7.93 -2.19,2.12 -2.19,2.12 3.44,12.27"
           fill="#efefef"
           stroke="3f3f3f"
           stroke-width="1"
           id="path12480" /><path
           d="m 654.5,244.91 c 0.82,4.76 0.82,4.76 9.08,18.15 8.26,13.39 8.26,13.39 18.19,13.92 9.93,0.53 9.93,0.53 17.18,-36.39 7.25,-36.91 7.25,-36.91 -0.68,-37.05 -7.93,-0.14 -7.93,-0.14 -22.51,6.4 -14.58,6.54 -14.58,6.54 -18.34,18.37 -3.75,11.83 -3.75,11.83 -2.92,16.6"
           fill="#efefef"
           stroke="3f3f3f"
           stroke-width="1"
           id="path12482" /><path
           d="m 57.3,241.68 c 1.7,22.8 1.7,22.8 12.77,26.48 11.06,3.69 11.06,3.69 26.33,-2.52 15.27,-6.21 15.27,-6.21 -8.09,-30.42 -23.36,-24.21 -23.36,-24.21 -28.03,-20.28 -4.68,3.94 -4.68,3.94 -2.98,26.74"
           fill="#efefef"
           stroke="3f3f3f"
           stroke-width="1"
           id="path12484" /><path
           d="m 702.75,279.85 c 9.02,2.79 9.02,2.79 21.75,-35.21 12.73,-37.99 12.73,-37.99 8.26,-40.75 -4.48,-2.77 -4.48,-2.77 -14.51,-1.71 -10.02,1.05 -10.02,1.05 -17.27,37.97 -7.25,36.92 -7.25,36.92 1.77,39.7"
           fill="#efefef"
           stroke="3f3f3f"
           stroke-width="1"
           id="path12486" /><path
           d="m 576.86,265.7 c 2.1,6.99 2.1,6.99 13.32,9.6 11.22,2.62 11.22,2.62 23.82,-13.58 12.61,-16.19 12.61,-16.19 -4.25,-18.18 -16.86,-1.99 -16.86,-1.99 -25.92,6.59 -9.07,8.59 -9.07,8.59 -6.97,15.57"
           fill="#efefef"
           stroke="3f3f3f"
           stroke-width="1"
           id="path12488" /><path
           d="m 309.95,252.22 c 4.63,14.7 4.63,14.7 10.02,19.47 5.39,4.77 5.39,4.77 7.93,3.48 2.53,-1.3 2.53,-1.3 4.97,-15.03 2.43,-13.73 2.43,-13.73 -4.97,-17.49 -7.41,-3.76 -7.41,-3.76 -10.69,-5.21 -3.29,-1.44 -3.29,-1.44 -7.59,-0.68 -4.31,0.77 -4.31,0.77 0.33,15.46"
           fill="#efefef"
           stroke="3f3f3f"
           stroke-width="1"
           id="path12490" /><path
           d="m 293.06,257.17 c 20.38,9.43 20.38,9.43 15.17,-5.22 -5.21,-14.64 -5.21,-14.64 -20.38,-9.42 -15.17,5.22 -15.17,5.22 5.21,14.64"
           fill="#efefef"
           stroke="3f3f3f"
           stroke-width="1"
           id="path12492" /><path
           d="m 11.44,301.01 c 9.91,1.27 9.91,1.27 23.88,-9.87 C 49.29,280 49.29,280 53.05,272.7 c 3.76,-7.3 3.76,-7.3 2.06,-30.1 -1.7,-22.8 -1.7,-22.8 -27.64,-25.62 -25.94,-2.82 -25.94,-2.82 -25.94,39.97 0,42.78 0,42.78 9.91,44.06"
           fill="#efefef"
           stroke="3f3f3f"
           stroke-width="1"
           id="path12494" /><path
           d="m 755.76,245.18 c 1.91,33.72 1.91,33.72 21.7,36.83 19.8,3.11 19.8,3.11 20.69,-35.27 0.9,-38.38 0.9,-38.38 -21.7,-36.83 -22.59,1.55 -22.59,1.55 -20.69,35.27"
           fill="#efefef"
           stroke="3f3f3f"
           stroke-width="1"
           id="path12496" /><path
           d="m 610.82,282.35 c 7.62,4.37 7.62,4.37 24.95,-13.72 17.33,-18.09 17.33,-18.09 16.51,-22.85 -0.83,-4.77 -0.83,-4.77 -12.35,-2.48 -11.52,2.28 -11.52,2.28 -24.13,18.48 -12.6,16.2 -12.6,16.2 -4.98,20.57"
           fill="#efefef"
           stroke="3f3f3f"
           stroke-width="1"
           id="path12498" /><path
           d="m 721.21,293.8 c 8.35,10.02 8.35,10.02 21.32,-2.36 12.96,-12.37 12.96,-12.37 11.06,-46.09 -1.9,-33.72 -1.9,-33.72 -8.58,-35.63 -6.69,-1.92 -6.69,-1.92 -19.42,36.08 -12.73,37.99 -12.73,37.99 -4.38,48"
           fill="#efefef"
           stroke="3f3f3f"
           stroke-width="1"
           id="path12500" /><path
           d="m 334.94,276.31 c 3.27,2.02 3.27,2.02 20.37,-0.15 17.11,-2.18 17.11,-2.18 8.88,-12.29 -8.23,-10.11 -8.23,-10.11 -17.4,-13.77 -9.16,-3.66 -9.16,-3.66 -12.14,10.27 -2.98,13.92 -2.98,13.92 0.29,15.94"
           fill="#efefef"
           stroke="3f3f3f"
           stroke-width="1"
           id="path12502" /><path
           d="m 269.44,254.54 c 0.17,4.82 0.17,4.82 16.33,22.84 16.17,18.03 16.17,18.03 27.19,8.98 11.02,-9.06 11.02,-9.06 5.63,-13.83 -5.39,-4.77 -5.39,-4.77 -25.77,-14.19 -20.38,-9.42 -20.38,-9.42 -21.97,-9.02 -1.58,0.4 -1.58,0.4 -1.41,5.22"
           fill="#efefef"
           stroke="3f3f3f"
           stroke-width="1"
           id="path12504" /><path
           d="m 192.62,277.26 c 1.7,3.44 1.7,3.44 21.41,10.62 19.7,7.17 19.7,7.17 30.6,-2.06 10.9,-9.23 10.9,-9.23 16.52,-17.96 5.62,-8.73 5.62,-8.73 5.45,-13.55 -0.17,-4.82 -0.17,-4.82 -3,-7.84 -2.83,-3.02 -2.83,-3.02 -21.4,0.23 -18.58,3.26 -18.58,3.26 -34.93,15.19 -16.35,11.93 -16.35,11.93 -14.65,15.37"
           fill="#efefef"
           stroke="3f3f3f"
           stroke-width="1"
           id="path12506" /><path
           d="m 95.34,282.59 c 12.09,9.28 12.09,9.28 31.32,-3.44 19.23,-12.72 19.23,-12.72 17.49,-14.49 -1.74,-1.77 -1.74,-1.77 -16.06,-2.77 -14.31,-0.99 -14.31,-0.99 -29.58,5.22 -15.27,6.21 -15.27,6.21 -3.17,15.48"
           fill="#efefef"
           stroke="3f3f3f"
           stroke-width="1"
           id="path12508" /><path
           d="m 510.56,285.12 c 3.73,9.76 3.73,9.76 32.98,2.91 29.25,-6.85 29.25,-6.85 31.04,-10.99 1.79,-4.14 1.79,-4.14 -0.31,-11.12 -2.09,-6.99 -2.09,-6.99 -15.45,-15.46 -13.36,-8.47 -13.36,-8.47 -17.16,-8.71 -3.79,-0.24 -3.79,-0.24 -12.91,-0.01 -9.11,0.24 -9.11,0.24 -15.52,16.93 -6.41,16.69 -6.41,16.69 -2.67,26.45"
           fill="#efefef"
           stroke="3f3f3f"
           stroke-width="1"
           id="path12510" /><path
           d="m 620.69,291.9 c 1.8,4.06 1.8,4.06 7.83,6.51 6.02,2.45 6.02,2.45 23.64,-8.86 17.63,-11.32 17.63,-11.32 9.51,-24.6 -8.12,-13.28 -8.12,-13.28 -25.45,4.81 -17.34,18.09 -17.34,18.09 -15.53,22.14"
           fill="#efefef"
           stroke="3f3f3f"
           stroke-width="1"
           id="path12512" /><path
           d="m 342.46,287.06 c 3.47,7.75 3.47,7.75 16.47,1.8 13,-5.94 13,-5.94 15.21,-9.21 2.2,-3.28 2.2,-3.28 0.63,-3.99 -1.57,-0.71 -1.57,-0.71 -18.67,1.47 -17.11,2.17 -17.11,2.17 -13.64,9.93"
           fill="#efefef"
           stroke="3f3f3f"
           stroke-width="1"
           id="path12514" /><path
           d="m 389.24,292.19 c 5.3,16.55 5.3,16.55 20.12,11.44 14.83,-5.12 14.83,-5.12 21.57,-18.88 6.75,-13.77 6.75,-13.77 1.11,-23.92 -5.63,-10.15 -5.63,-10.15 -9.87,-11.2 -4.23,-1.05 -4.23,-1.05 -21.23,12.48 -17.01,13.54 -17.01,13.54 -11.7,30.08"
           fill="#efefef"
           stroke="3f3f3f"
           stroke-width="1"
           id="path12516" /><path
           d="m 346.22,298.57 c 0.46,3.1 0.46,3.1 6.41,2.04 5.95,-1.06 5.95,-1.06 10.26,-3.85 4.31,-2.79 4.31,-2.79 6.59,-7.99 2.29,-5.19 2.29,-5.19 -10.71,0.75 -13,5.95 -13,5.95 -12.55,9.05"
           fill="#efefef"
           stroke="3f3f3f"
           stroke-width="1"
           id="path12518" /><path
           d="m 313.06,316.81 c 7.87,19.2 7.87,19.2 13.61,21.23 5.73,2.02 5.73,2.02 12.18,-17.03 6.44,-19.04 6.44,-19.04 5.99,-22.14 -0.45,-3.1 -0.45,-3.1 -3.93,-10.86 -3.47,-7.75 -3.47,-7.75 -6.73,-9.77 -3.27,-2.01 -3.27,-2.01 -5.81,-0.72 -2.53,1.3 -2.53,1.3 -12.85,10.69 -10.32,9.39 -10.32,9.39 -2.46,28.6"
           fill="#efefef"
           stroke="3f3f3f"
           stroke-width="1"
           id="path12520" /><path
           d="m 263.68,294.22 c 6.28,16.63 6.28,16.63 21.08,8.96 14.81,-7.68 14.81,-7.68 -0.66,-25.37 -15.46,-17.68 -15.46,-17.68 -21.08,-8.95 -5.62,8.73 -5.62,8.73 0.66,25.36"
           fill="#efefef"
           stroke="3f3f3f"
           stroke-width="1"
           id="path12522" /><path
           d="m 65.29,298.06 c 13.8,16.96 13.8,16.96 26.14,5.45 12.35,-11.51 12.35,-11.51 1.04,-20.57 -11.32,-9.06 -11.32,-9.06 -22.38,-12.75 -11.07,-3.68 -11.07,-3.68 -14.83,3.62 -3.76,7.3 -3.76,7.3 10.03,24.25"
           fill="#efefef"
           stroke="3f3f3f"
           stroke-width="1"
           id="path12524" /><path
           d="m 531.01,306.04 c 16.62,7.65 16.62,7.65 28.81,5.08 12.18,-2.58 12.18,-2.58 12.6,-15.34 0.42,-12.76 0.42,-12.76 -28.81,-5.07 -29.23,7.68 -29.23,7.68 -12.6,15.33"
           fill="#efefef"
           stroke="3f3f3f"
           stroke-width="1"
           id="path12526" /><path
           d="m 115.74,312.38 c 5.92,18.9 5.92,18.9 8.96,21.27 3.04,2.38 3.04,2.38 11.59,-18.48 8.54,-20.86 8.54,-20.86 9.93,-34.05 1.38,-13.18 1.38,-13.18 -17.51,-0.41 -18.89,12.78 -18.89,12.78 -12.97,31.67"
           fill="#efefef"
           stroke="3f3f3f"
           stroke-width="1"
           id="path12528" /><path
           d="m 371.17,309.69 c 2.92,15.37 2.92,15.37 3.77,18.27 0.85,2.89 0.85,2.89 7.99,-4.53 7.13,-7.43 7.13,-7.43 8.49,-10.4 1.37,-2.98 1.37,-2.98 -3.93,-19.52 -5.31,-16.55 -5.31,-16.55 -7.78,-16.34 -2.47,0.21 -2.47,0.21 -4.68,3.49 -2.21,3.27 -2.21,3.27 -4.49,8.46 -2.28,5.2 -2.28,5.2 0.63,20.57"
           fill="#efefef"
           stroke="3f3f3f"
           stroke-width="1"
           id="path12530" /><path
           d="m 730.43,310.79 c 0.19,4.55 0.19,4.55 7.53,15.46 7.33,10.91 7.33,10.91 31.68,-13.71 24.34,-24.63 24.34,-24.63 5.44,-27.84 -18.9,-3.21 -18.9,-3.21 -31.87,9.17 -12.96,12.37 -12.96,12.37 -12.78,16.92"
           fill="#efefef"
           stroke="3f3f3f"
           stroke-width="1"
           id="path12532" /><path
           d="m 461.32,302.8 c 6.97,23.85 6.97,23.85 27.78,13.15 20.8,-10.7 20.8,-10.7 21.77,-14.21 0.97,-3.51 0.97,-3.51 -2.78,-14.1 -3.76,-10.59 -3.76,-10.59 -28.75,-9.64 -24.98,0.94 -24.98,0.94 -18.02,24.8"
           fill="#efefef"
           stroke="3f3f3f"
           stroke-width="1"
           id="path12534" /><path
           d="m 583.41,324.89 c 8.92,16.57 8.92,16.57 22.86,-5.85 13.94,-22.43 13.94,-22.43 12.13,-26.48 -1.8,-4.06 -1.8,-4.06 -9.42,-8.43 -7.62,-4.37 -7.62,-4.37 -18.84,-6.99 -11.22,-2.62 -11.22,-2.62 -13.01,1.52 -1.79,4.14 -1.79,4.14 -2.21,16.9 -0.42,12.76 -0.42,12.76 8.49,29.33"
           fill="#efefef"
           stroke="3f3f3f"
           stroke-width="1"
           id="path12536" /><path
           d="m 642.9,314.46 c 7.37,12.94 7.37,12.94 17.61,-4.5 10.25,-17.43 10.25,-17.43 10.4,-24.15 0.16,-6.71 0.16,-6.71 -17.61,4.5 -17.77,11.2 -17.77,11.2 -10.4,24.15"
           fill="#efefef"
           stroke="3f3f3f"
           stroke-width="1"
           id="path12538" /><path
           d="m 366.24,312.72 c 7.22,12.58 7.22,12.58 4.31,-2.79 -2.92,-15.37 -2.92,-15.37 -7.22,-12.58 -4.31,2.79 -4.31,2.79 2.91,15.37"
           fill="#efefef"
           stroke="3f3f3f"
           stroke-width="1"
           id="path12540" /><path
           d="m 240.88,323.61 c 6.39,26.38 6.39,26.38 17.18,7.4 10.79,-18.98 10.79,-18.98 4.51,-35.62 -6.28,-16.63 -6.28,-16.63 -17.18,-7.4 -10.89,9.23 -10.89,9.23 -4.51,35.62"
           fill="#efefef"
           stroke="3f3f3f"
           stroke-width="1"
           id="path12542" /><path
           d="m 680.93,309.74 c 8.19,17.11 8.19,17.11 27.64,11.17 19.45,-5.95 19.45,-5.95 19.26,-10.5 -0.18,-4.56 -0.18,-4.56 -8.54,-14.57 -8.35,-10.01 -8.35,-10.01 -17.37,-12.8 -9.02,-2.78 -9.02,-2.78 -18.8,-3.2 -9.79,-0.43 -9.79,-0.43 -10.09,6.18 -0.3,6.61 -0.3,6.61 7.9,23.72"
           fill="#efefef"
           stroke="3f3f3f"
           stroke-width="1"
           id="path12544" /><path
           d="m 155.9,305.6 c 9.07,11.68 9.07,11.68 17.7,10.26 8.62,-1.41 8.62,-1.41 11.01,-4.37 2.39,-2.96 2.39,-2.96 4.46,-16.26 2.07,-13.3 2.07,-13.3 0.37,-16.74 -1.7,-3.44 -1.7,-3.44 -8.86,-7.9 -7.16,-4.46 -7.16,-4.46 -18.63,-3.6 -11.47,0.87 -11.47,0.87 -13.3,13.9 -1.83,13.02 -1.83,13.02 7.25,24.71"
           fill="#efefef"
           stroke="3f3f3f"
           stroke-width="1"
           id="path12546" /><path
           d="m 338.11,344.82 c 4.4,3.37 4.4,3.37 16.07,3.46 11.67,0.08 11.67,0.08 16.07,-8 4.41,-8.08 4.41,-8.08 3.55,-10.98 -0.85,-2.89 -0.85,-2.89 -8.07,-15.47 -7.23,-12.58 -7.23,-12.58 -13.18,-11.52 -5.95,1.06 -5.95,1.06 -12.4,20.1 -6.44,19.04 -6.44,19.04 -2.04,22.41"
           fill="#efefef"
           stroke="3f3f3f"
           stroke-width="1"
           id="path12548" /><path
           d="m 81.57,321.38 c 1.26,5.02 1.26,5.02 19.83,7.81 18.56,2.79 18.56,2.79 11.86,-16.32 -6.7,-19.11 -6.7,-19.11 -19.83,-7.81 -13.12,11.3 -13.12,11.3 -11.86,16.32"
           fill="#efefef"
           stroke="3f3f3f"
           stroke-width="1"
           id="path12550" /><path
           d="m 145.94,328.34 c 17.45,-9.47 17.45,-9.47 8.38,-21.15 -9.08,-11.68 -9.08,-11.68 -17.46,9.47 -8.38,21.14 -8.38,21.14 9.08,11.68"
           fill="#efefef"
           stroke="3f3f3f"
           stroke-width="1"
           id="path12552" /><path
           d="m 429.31,317.3 c 3.57,16.97 3.57,16.97 5.31,20.27 1.75,3.3 1.75,3.3 16.44,-3.29 14.69,-6.59 14.69,-6.59 7.79,-30.6 -6.9,-24.01 -6.9,-24.01 -13.25,-27.45 -6.36,-3.43 -6.36,-3.43 -13.11,10.33 -6.74,13.77 -6.74,13.77 -3.18,30.74"
           fill="#efefef"
           stroke="3f3f3f"
           stroke-width="1"
           id="path12554" /><path
           d="m 651.34,335.09 c 0.67,6.18 0.67,6.18 13.04,4.68 12.37,-1.51 12.37,-1.51 17.76,-6.51 5.4,-5 5.4,-5 -2.8,-22.11 -8.19,-17.11 -8.19,-17.11 -18.43,0.32 -10.25,17.44 -10.25,17.44 -9.57,23.62"
           fill="#efefef"
           stroke="3f3f3f"
           stroke-width="1"
           id="path12556" /><path
           d="m 757.53,344.89 c 10.11,5.46 10.11,5.46 25.58,2.96 15.46,-2.5 15.46,-2.5 14.57,-30.78 -0.9,-28.28 -0.9,-28.28 -25.58,-2.96 -24.69,25.32 -24.69,25.32 -14.57,30.78"
           fill="#efefef"
           stroke="3f3f3f"
           stroke-width="1"
           id="path12558" /><path
           d="m 215.46,331.9 c 25.86,21.66 25.86,21.66 28.16,20.49 2.29,-1.16 2.29,-1.16 -4.09,-27.79 -6.37,-26.62 -6.37,-26.62 -26.08,-33.79 -19.71,-7.18 -19.71,-7.18 -21.78,6.12 -2.07,13.3 -2.07,13.3 23.79,34.97"
           fill="#efefef"
           stroke="3f3f3f"
           stroke-width="1"
           id="path12560" /><path
           d="m 290.94,347.47 c 27.41,-10.02 27.41,-10.02 18.85,-29.56 -8.57,-19.55 -8.57,-19.55 -24.08,-12.21 -15.51,7.34 -15.51,7.34 -26.31,26.56 -10.8,19.22 -10.8,19.22 -3.33,22.22 7.47,3.01 7.47,3.01 34.87,-7.01"
           fill="#efefef"
           stroke="3f3f3f"
           stroke-width="1"
           id="path12562" /><path
           d="m 411.37,325.57 c 19.75,8.89 19.75,8.89 16.19,-8.08 -3.57,-16.97 -3.57,-16.97 -18.39,-11.86 -14.82,5.11 -14.82,5.11 -16.19,8.09 -1.37,2.97 -1.37,2.97 18.39,11.85"
           fill="#efefef"
           stroke="3f3f3f"
           stroke-width="1"
           id="path12564" /><path
           d="m 594.13,345.26 c 0.22,1.89 0.22,1.89 12.65,9.94 12.43,8.04 12.43,8.04 25.97,-0.76 13.54,-8.79 13.54,-8.79 15.36,-10.79 1.82,-1.99 1.82,-1.99 1.14,-8.17 -0.67,-6.18 -0.67,-6.18 -8.04,-19.12 -7.36,-12.94 -7.36,-12.94 -13.39,-15.39 -6.02,-2.45 -6.02,-2.45 -19.96,19.97 -13.94,22.42 -13.94,22.42 -13.73,24.32"
           fill="#efefef"
           stroke="3f3f3f"
           stroke-width="1"
           id="path12566" /><path
           d="m 29.26,321.19 c 6.7,15.99 6.7,15.99 13.13,19.36 6.44,3.37 6.44,3.37 16.19,1.82 9.74,-1.55 9.74,-1.55 15.89,-8.52 6.15,-6.98 6.15,-6.98 4.88,-12 C 78.09,316.83 78.09,316.83 64.3,299.88 50.5,282.92 50.5,282.92 36.53,294.06 22.56,305.2 22.56,305.2 29.26,321.19"
           fill="#efefef"
           stroke="3f3f3f"
           stroke-width="1"
           id="path12568" /><path
           d="m 513.16,312.74 c 1.54,6.57 1.54,6.57 11.33,11.88 9.79,5.32 9.79,5.32 15.15,2.4 5.36,-2.91 5.36,-2.91 6.26,-7.73 0.9,-4.83 0.9,-4.83 -15.7,-11.65 -16.61,-6.82 -16.61,-6.82 -17.6,-4.15 -0.98,2.68 -0.98,2.68 0.56,9.25"
           fill="#efefef"
           stroke="3f3f3f"
           stroke-width="1"
           id="path12570" /><path
           d="m 553.54,342.66 c 6.5,17.65 6.5,17.65 22.22,11.06 15.72,-6.59 15.72,-6.59 15.51,-8.49 -0.22,-1.89 -0.22,-1.89 -9.14,-18.46 -8.91,-16.57 -8.91,-16.57 -21.09,-14 -12.19,2.58 -12.19,2.58 -13.09,7.4 -0.91,4.83 -0.91,4.83 5.59,22.49"
           fill="#efefef"
           stroke="3f3f3f"
           stroke-width="1"
           id="path12572" /><path
           d="m 544.1,348.15 c 8.78,16.73 8.78,16.73 11.85,14.75 3.07,-1.98 3.07,-1.98 -3.42,-19.64 -6.5,-17.65 -6.5,-17.65 -11.86,-14.74 -5.36,2.91 -5.36,2.91 3.43,19.63"
           fill="#efefef"
           stroke="3f3f3f"
           stroke-width="1"
           id="path12574" /><path
           d="m 373.39,353.15 c 5.19,4.07 5.19,4.07 23.82,4.66 18.63,0.59 18.63,0.59 26.21,-3.73 7.57,-4.33 7.57,-4.33 9.21,-7.99 1.64,-3.67 1.64,-3.67 -0.11,-6.97 -1.75,-3.3 -1.75,-3.3 -21.5,-12.18 -19.75,-8.88 -19.75,-8.88 -26.88,-1.46 -7.14,7.43 -7.14,7.43 -11.54,15.51 -4.4,8.08 -4.4,8.08 0.79,12.16"
           fill="#efefef"
           stroke="3f3f3f"
           stroke-width="1"
           id="path12576" /><path
           d="m 130.57,344.26 c 1.08,5.25 1.08,5.25 6.02,6.38 4.94,1.13 4.94,1.13 24.02,-7.99 19.07,-9.13 19.07,-9.13 19.88,-17.56 0.81,-8.43 0.81,-8.43 -7.81,-7.01 -8.63,1.42 -8.63,1.42 -25.91,11.17 -17.29,9.76 -17.29,9.76 -16.2,15.01"
           fill="#efefef"
           stroke="3f3f3f"
           stroke-width="1"
           id="path12578" /><path
           d="m 497.11,345.56 c 14.24,-3.77 14.24,-3.77 15.03,-14.68 0.78,-10.91 0.78,-10.91 -0.76,-17.47 -1.54,-6.57 -1.54,-6.57 -22.41,4.28 -20.88,10.86 -20.88,10.86 -13.49,21.25 7.39,10.38 7.39,10.38 21.63,6.62"
           fill="#efefef"
           stroke="3f3f3f"
           stroke-width="1"
           id="path12580" /><path
           d="m 187.22,345.16 c 5.13,11.43 5.13,11.43 24.06,14.25 18.93,2.83 18.93,2.83 23.93,-1.15 5.01,-3.97 5.01,-3.97 -20.85,-25.64 -25.87,-21.67 -25.87,-21.67 -28.26,-18.71 -2.39,2.96 -2.39,2.96 -3.2,11.39 -0.81,8.43 -0.81,8.43 4.32,19.86"
           fill="#efefef"
           stroke="3f3f3f"
           stroke-width="1"
           id="path12582" /><path
           d="m 525.61,360.26 c 12.34,17.56 12.34,17.56 19.36,11.13 7.02,-6.42 7.02,-6.42 -1.77,-23.14 -8.78,-16.72 -8.78,-16.72 -18.57,-22.04 -9.79,-5.31 -9.79,-5.31 -10.58,5.59 -0.78,10.91 -0.78,10.91 11.56,28.46"
           fill="#efefef"
           stroke="3f3f3f"
           stroke-width="1"
           id="path12584" /><path
           d="m 11.46,355.68 c 10.68,-3.88 10.68,-3.88 16.61,-10.95 5.92,-7.07 5.92,-7.07 -0.78,-23.06 -6.69,-15.99 -6.69,-15.99 -16.6,-17.26 -9.91,-1.28 -9.91,-1.28 -9.91,26.94 0,28.21 0,28.21 10.68,24.33"
           fill="#efefef"
           stroke="3f3f3f"
           stroke-width="1"
           id="path12586" /><path
           d="m 156.98,360.36 c 14.61,7.69 14.61,7.69 24.2,2.31 9.59,-5.38 9.59,-5.38 4.47,-16.81 -5.13,-11.43 -5.13,-11.43 -24.21,-2.31 -19.07,9.13 -19.07,9.13 -4.46,16.81"
           fill="#efefef"
           stroke="3f3f3f"
           stroke-width="1"
           id="path12588" /><path
           d="m 75.46,347.83 c 4.49,5.99 4.49,5.99 27.83,6.45 23.34,0.46 23.34,0.46 24.68,-1.97 1.35,-2.43 1.35,-2.43 0.1,-7.97 -1.25,-5.54 -1.25,-5.54 -4.46,-8.2 -3.21,-2.67 -3.21,-2.67 -21.78,-5.45 -18.56,-2.79 -18.56,-2.79 -24.71,4.18 -6.15,6.98 -6.15,6.98 -1.66,12.96"
           fill="#efefef"
           stroke="3f3f3f"
           stroke-width="1"
           id="path12590" /><path
           d="m 681.27,342.24 c 2.3,3.33 2.3,3.33 8.97,9.66 6.67,6.33 6.67,6.33 24.05,0.49 17.37,-5.85 17.37,-5.85 23.22,-9.66 5.86,-3.82 5.86,-3.82 -1.5,-14.77 -7.35,-10.94 -7.35,-10.94 -26.8,-5 -19.45,5.95 -19.45,5.95 -24.85,10.95 -5.39,5 -5.39,5 -3.09,8.33"
           fill="#efefef"
           stroke="3f3f3f"
           stroke-width="1"
           id="path12592" /><path
           d="m 447.43,365.82 c 13.59,15.66 13.59,15.66 23.7,0.72 10.11,-14.94 10.11,-14.94 2.67,-25.75 -7.45,-10.82 -7.45,-10.82 -22.07,-4.39 -14.63,6.44 -14.63,6.44 -16.26,10.1 -1.64,3.67 -1.64,3.67 11.96,19.32"
           fill="#efefef"
           stroke="3f3f3f"
           stroke-width="1"
           id="path12594" /><path
           d="m 511.43,377.41 c 19.87,14.59 19.87,14.59 22.6,7.9 2.72,-6.7 2.72,-6.7 -9.62,-24.25 -12.34,-17.55 -12.34,-17.55 -26.6,-13.2 -14.26,4.36 -14.26,4.36 -10.25,9.66 4,5.3 4,5.3 23.87,19.89"
           fill="#efefef"
           stroke="3f3f3f"
           stroke-width="1"
           id="path12596" /><path
           d="m 82.53,376.59 c 2.85,21.28 2.85,21.28 19.67,12.24 16.81,-9.04 16.81,-9.04 20.49,-20.82 3.67,-11.77 3.67,-11.77 -19.67,-12.23 -23.34,-0.46 -23.34,-0.46 -20.49,20.81"
           fill="#efefef"
           stroke="3f3f3f"
           stroke-width="1"
           id="path12598" /><path
           d="m 663.65,362.8 c 15.29,16.32 15.29,16.32 16.49,-0.16 1.2,-16.49 1.2,-16.49 -1.1,-19.82 -2.3,-3.33 -2.3,-3.33 -14.67,-1.82 -12.37,1.5 -12.37,1.5 -14.19,3.49 -1.82,1.99 -1.82,1.99 13.47,18.31"
           fill="#efefef"
           stroke="3f3f3f"
           stroke-width="1"
           id="path12600" /><path
           d="m 52.33,368.33 c 2.75,21.62 2.75,21.62 13.84,28.93 11.1,7.31 11.1,7.31 14.34,4.1 3.24,-3.22 3.24,-3.22 0.39,-24.5 -2.85,-21.28 -2.85,-21.28 -7.34,-27.27 -4.49,-5.98 -4.49,-5.98 -14.23,-4.43 -9.75,1.55 -9.75,1.55 -7,23.17"
           fill="#efefef"
           stroke="3f3f3f"
           stroke-width="1"
           id="path12602" /><path
           d="m 696.7,368.61 c 0.05,9 0.05,9 3.33,11.06 3.29,2.06 3.29,2.06 17.34,-14.84 14.04,-16.91 14.04,-16.91 -3.33,-11.06 -17.38,5.84 -17.38,5.84 -17.34,14.84"
           fill="#efefef"
           stroke="3f3f3f"
           stroke-width="1"
           id="path12604" /><path
           d="m 687.86,378.95 c 7.87,-1.23 7.87,-1.23 7.83,-10.23 -0.04,-9 -0.04,-9 -6.71,-15.33 -6.68,-6.33 -6.68,-6.33 -7.84,10.23 -1.16,16.57 -1.16,16.57 6.72,15.33"
           fill="#efefef"
           stroke="3f3f3f"
           stroke-width="1"
           id="path12606" /><path
           d="m 25.3,371.62 c 2.07,18.22 2.07,18.22 15.11,17.92 13.04,-0.3 13.04,-0.3 10.29,-21.92 C 47.95,346 47.95,346 41.52,342.63 c -6.44,-3.37 -6.44,-3.37 -12.37,3.69 -5.92,7.07 -5.92,7.07 -3.85,25.3"
           fill="#efefef"
           stroke="3f3f3f"
           stroke-width="1"
           id="path12608" /><path
           d="m 4.89,398.61 c 4.3,0.98 4.3,0.98 12.75,-3.46 8.44,-4.44 8.44,-4.44 6.37,-22.67 -2.07,-18.22 -2.07,-18.22 -12.75,-14.34 -10.68,3.88 -10.68,3.88 -10.68,21.69 0,17.8 0,17.8 4.31,18.78"
           fill="#efefef"
           stroke="3f3f3f"
           stroke-width="1"
           id="path12610" /><path
           d="m 463.5,391.77 c 1.72,8.84 1.72,8.84 7.48,8.54 5.75,-0.3 5.75,-0.3 12.38,-18.48 6.63,-18.17 6.63,-18.17 2.61,-22.89 -4.02,-4.71 -4.02,-4.71 -14.11,9.64 -10.09,14.35 -10.09,14.35 -8.36,23.19"
           fill="#efefef"
           stroke="3f3f3f"
           stroke-width="1"
           id="path12612" /><path
           d="m 500.21,401.28 c 21.68,0.73 21.68,0.73 26.42,-3.15 4.73,-3.87 4.73,-3.87 -15.06,-18.9 -19.79,-15.03 -19.79,-15.03 -26.42,3.14 -6.63,18.18 -6.63,18.18 15.06,18.91"
           fill="#efefef"
           stroke="3f3f3f"
           stroke-width="1"
           id="path12614" /><path
           d="m 712.8,394.62 c 8.34,13.02 8.34,13.02 20.44,-20.15 12.1,-33.16 12.1,-33.16 5.7,-29.92 -6.39,3.23 -6.39,3.23 -20.44,20.14 -14.04,16.9 -14.04,16.9 -5.7,29.93"
           fill="#efefef"
           stroke="3f3f3f"
           stroke-width="1"
           id="path12616" /><path
           d="m 621.44,370.49 c 0.84,5.16 0.84,5.16 17.22,15.32 16.38,10.16 16.38,10.16 26.09,5.45 9.7,-4.71 9.7,-4.71 11.64,-7.72 1.95,-3 1.95,-3 -13.38,-19.4 -15.33,-16.39 -15.33,-16.39 -28.87,-7.6 -13.54,8.8 -13.54,8.8 -12.7,13.95"
           fill="#efefef"
           stroke="3f3f3f"
           stroke-width="1"
           id="path12618" /><path
           d="m 267.09,363.36 c 2.08,4.28 2.08,4.28 15.39,27.6 13.32,23.33 13.32,23.33 34.41,-5.1 21.1,-28.43 21.1,-28.43 22.16,-32.23 1.07,-3.8 1.07,-3.8 -3.34,-7.17 -4.4,-3.37 -4.4,-3.37 -10.14,-5.39 -5.74,-2.03 -5.74,-2.03 -33.14,7.99 -27.41,10.02 -27.41,10.02 -25.34,14.3"
           fill="#efefef"
           stroke="3f3f3f"
           stroke-width="1"
           id="path12620" /><path
           d="m 173.18,379.33 c 0.32,9.99 0.32,9.99 9.27,15.85 8.95,5.85 8.95,5.85 23.15,0.7 14.19,-5.16 14.19,-5.16 19.24,-18.4 5.06,-13.25 5.06,-13.25 -13.87,-16.08 -18.93,-2.83 -18.93,-2.83 -28.52,2.55 -9.6,5.38 -9.6,5.38 -9.27,15.38"
           fill="#efefef"
           stroke="3f3f3f"
           stroke-width="1"
           id="path12622" /><path
           d="m 132.84,392.16 c 11.77,12.39 11.77,12.39 24.9,4.6 13.13,-7.79 13.13,-7.79 12.8,-17.78 -0.32,-9.99 -0.32,-9.99 -14.93,-17.68 -14.61,-7.68 -14.61,-7.68 -19.56,-8.81 -4.94,-1.13 -4.94,-1.13 -6.28,1.3 -1.34,2.43 -1.34,2.43 -5.02,14.21 -3.67,11.77 -3.67,11.77 8.09,24.16"
           fill="#efefef"
           stroke="3f3f3f"
           stroke-width="1"
           id="path12624" /><path
           d="m 421.15,384.49 c 3.34,23.96 3.34,23.96 19.59,23.84 16.26,-0.13 16.26,-0.13 19.56,-3.79 3.3,-3.67 3.3,-3.67 1.57,-12.51 -1.72,-8.84 -1.72,-8.84 -15.32,-24.5 -13.59,-15.65 -13.59,-15.65 -21.17,-11.32 -7.57,4.32 -7.57,4.32 -4.23,28.28"
           fill="#efefef"
           stroke="3f3f3f"
           stroke-width="1"
           id="path12626" /><path
           d="m 769.42,377.89 c 1.17,24.69 1.17,24.69 6.61,27.14 5.43,2.44 5.43,2.44 14.29,3.11 8.86,0.67 8.86,0.67 8.86,-29.63 0,-30.31 0,-30.31 -15.46,-27.82 -15.47,2.5 -15.47,2.5 -14.3,27.2"
           fill="#efefef"
           stroke="3f3f3f"
           stroke-width="1"
           id="path12628" /><path
           d="m 723.2,416.58 c 1.27,7.8 1.27,7.8 23.38,-3.03 22.11,-10.84 22.11,-10.84 20.94,-35.54 -1.17,-24.7 -1.17,-24.7 -10.75,-29.6 -9.58,-4.89 -9.58,-4.89 -22.21,27.73 -12.62,32.63 -12.62,32.63 -11.36,40.44"
           fill="#efefef"
           stroke="3f3f3f"
           stroke-width="1"
           id="path12630" /><path
           d="m 379.55,367.7 c 1.19,8.25 1.19,8.25 6.44,21.42 5.25,13.16 5.25,13.16 12.64,21.16 7.4,8 7.4,8 15.54,3.13 8.14,-4.86 8.14,-4.86 4.8,-28.82 -3.34,-23.96 -3.34,-23.96 -21.97,-24.55 -18.63,-0.59 -18.63,-0.59 -17.45,7.66"
           fill="#efefef"
           stroke="3f3f3f"
           stroke-width="1"
           id="path12632" /><path
           d="m 605.82,407.81 c 12.34,-31.93 12.34,-31.93 11.5,-37.08 -0.84,-5.16 -0.84,-5.16 -13.27,-13.2 -12.43,-8.04 -12.43,-8.04 -28.15,-1.45 -15.72,6.59 -15.72,6.59 -18.79,8.57 -3.08,1.98 -3.08,1.98 -10.09,8.4 -7.02,6.43 -7.02,6.43 -9.83,13.56 -2.81,7.13 -2.81,7.13 26.75,30.13 29.55,23 29.55,23 41.88,-8.93"
           fill="#efefef"
           stroke="3f3f3f"
           stroke-width="1"
           id="path12634" /><path
           d="m 343.72,381.33 c 3.13,23.53 3.13,23.53 15.55,13.32 12.43,-10.22 12.43,-10.22 15.98,-14.93 3.56,-4.71 3.56,-4.71 2.37,-12.96 -1.18,-8.25 -1.18,-8.25 -6.37,-12.33 -5.2,-4.07 -5.2,-4.07 -16.87,-4.15 -11.67,-0.09 -11.67,-0.09 -12.73,3.71 -1.06,3.8 -1.06,3.8 2.07,27.34"
           fill="#efefef"
           stroke="3f3f3f"
           stroke-width="1"
           id="path12636" /><path
           d="m 695.1,415.31 c 18.25,27.49 18.25,27.49 22.71,18.65 4.46,-8.83 4.46,-8.83 3.2,-16.64 -1.27,-7.81 -1.27,-7.81 -9.61,-20.83 -8.34,-13.02 -8.34,-13.02 -11.63,-15.08 -3.29,-2.07 -3.29,-2.07 -11.12,-0.76 -7.83,1.31 -7.83,1.31 -9.81,4.24 -1.99,2.93 -1.99,2.93 16.26,30.42"
           fill="#efefef"
           stroke="3f3f3f"
           stroke-width="1"
           id="path12638" /><path
           d="m 298.55,432.68 c 1.86,15.64 1.86,15.64 17.29,15.64 15.43,0 15.43,0 22.24,-15.01 6.81,-15.01 6.81,-15.01 6.93,-20.54 0.12,-5.52 0.12,-5.52 -3.01,-29.05 -3.13,-23.54 -3.13,-23.54 -24.22,4.89 -21.09,28.43 -21.09,28.43 -19.23,44.07"
           fill="#efefef"
           stroke="3f3f3f"
           stroke-width="1"
           id="path12640" /><path
           d="m 353.01,414.07 c 6.63,-3.67 6.63,-3.67 12.55,-15.74 5.92,-12.07 5.92,-12.07 -6.51,-1.86 -12.43,10.22 -12.43,10.22 -12.55,15.74 -0.12,5.52 -0.12,5.52 6.51,1.86"
           fill="#efefef"
           stroke="3f3f3f"
           stroke-width="1"
           id="path12642" /><path
           d="m 375.35,406.2 c 14.72,-3.61 14.72,-3.61 9.47,-16.78 -5.25,-13.17 -5.25,-13.17 -8.81,-8.45 -3.55,4.71 -3.55,4.71 -9.47,16.78 -5.91,12.07 -5.91,12.07 8.81,8.45"
           fill="#efefef"
           stroke="3f3f3f"
           stroke-width="1"
           id="path12644" /><path
           d="m 657.31,400.66 c 0.76,2.4 0.76,2.4 16.98,25.16 16.23,22.77 16.23,22.77 26.39,22.77 10.16,0 10.16,0 10.97,-2.38 0.82,-2.39 0.82,-2.39 -17.44,-29.88 -18.25,-27.49 -18.25,-27.49 -27.95,-22.78 -9.7,4.71 -9.7,4.71 -8.95,7.11"
           fill="#efefef"
           stroke="3f3f3f"
           stroke-width="1"
           id="path12646" /><path
           d="m 230.79,415.47 c 8.61,24.87 8.61,24.87 21.89,-11.11 13.28,-35.98 13.28,-35.98 11.21,-40.26 -2.07,-4.28 -2.07,-4.28 -9.55,-7.05 -7.48,-2.76 -7.48,-2.76 -9.76,-1.84 -2.28,0.93 -2.28,0.93 -7.29,4.91 -5,3.98 -5,3.98 -10.05,17.23 -5.06,13.24 -5.06,13.24 3.55,38.12"
           fill="#efefef"
           stroke="3f3f3f"
           stroke-width="1"
           id="path12648" /><path
           d="m 269.47,447.29 c 28.04,1.49 28.04,1.49 26.18,-14.15 -1.86,-15.64 -1.86,-15.64 -15.18,-38.96 -13.31,-23.33 -13.31,-23.33 -26.18,14.15 -12.86,37.47 -12.86,37.47 15.18,38.96"
           fill="#efefef"
           stroke="3f3f3f"
           stroke-width="1"
           id="path12650" /><path
           d="m 146.03,410.76 c 0.28,4.23 0.28,4.23 16.78,17.88 16.49,13.65 16.49,13.65 21.79,-6.16 5.31,-19.82 5.31,-19.82 -3.65,-25.67 -8.95,-5.86 -8.95,-5.86 -22.08,1.93 -13.13,7.79 -13.13,7.79 -12.84,12.02"
           fill="#efefef"
           stroke="3f3f3f"
           stroke-width="1"
           id="path12652" /><path
           d="m 17.75,415.74 c 6.97,14.87 6.97,14.87 28.57,7.82 21.59,-7.05 21.59,-7.05 25.36,-12.25 3.77,-5.21 3.77,-5.21 -7.08,-12.57 -10.85,-7.36 -10.85,-7.36 -23.89,-7.06 -13.05,0.3 -13.05,0.3 -21.49,4.74 -8.44,4.44 -8.44,4.44 -1.47,19.32"
           fill="#efefef"
           stroke="3f3f3f"
           stroke-width="1"
           id="path12654" /><path
           d="m 97.28,424.31 c 17.3,18.28 17.3,18.28 31.86,4.41 14.57,-13.88 14.57,-13.88 14.28,-18.11 -0.28,-4.23 -0.28,-4.23 -12.05,-16.62 -11.76,-12.39 -11.76,-12.39 -28.58,-3.35 -16.82,9.05 -16.82,9.05 -19.81,12.22 -3,3.17 -3,3.17 14.3,21.45"
           fill="#efefef"
           stroke="3f3f3f"
           stroke-width="1"
           id="path12656" /><path
           d="m 597.11,445.08 c 0.96,3.39 0.96,3.39 13.37,3.39 12.4,0 12.4,0 28.5,-22.76 16.11,-22.77 16.11,-22.77 15.35,-25.17 -0.76,-2.4 -0.76,-2.4 -17.14,-12.56 -16.38,-10.16 -16.38,-10.16 -28.71,21.77 -12.34,31.93 -12.34,31.93 -11.37,35.33"
           fill="#efefef"
           stroke="3f3f3f"
           stroke-width="1"
           id="path12658" /><path
           d="m 399.72,434.47 c 4.94,-14.3 4.94,-14.3 -2.45,-22.3 -7.4,-8 -7.4,-8 -22.12,-4.38 -14.72,3.61 -14.72,3.61 -21.35,7.28 -6.64,3.67 -6.64,3.67 -13.44,18.68 -6.81,15.01 -6.81,15.01 23.8,15.01 30.62,0 30.62,0 35.56,-14.29"
           fill="#efefef"
           stroke="3f3f3f"
           stroke-width="1"
           id="path12660" /><path
           d="m 182.47,446.12 c 1.05,2.88 1.05,2.88 28.94,2.88 27.88,0 27.88,0 27.05,-2.98 -0.82,-2.98 -0.82,-2.98 -9.43,-27.85 -8.62,-24.88 -8.62,-24.88 -22.81,-19.73 -14.19,5.16 -14.19,5.16 -19.5,24.97 -5.3,19.82 -5.3,19.82 -4.25,22.71"
           fill="#efefef"
           stroke="3f3f3f"
           stroke-width="1"
           id="path12662" /><path
           d="m 672.93,426.43 c -16.22,-22.77 -16.22,-22.77 -32.33,0 -16.1,22.77 -16.1,22.77 16.22,22.77 32.33,0 32.33,0 16.11,-22.77"
           fill="#efefef"
           stroke="3f3f3f"
           stroke-width="1"
           id="path12664" /><path
           d="m 20.78,440.21 c 2.28,-8.6 2.28,-8.6 -4.68,-23.48 C 9.13,401.86 9.13,401.86 4.82,400.88 0.51,399.9 0.51,399.9 0.51,424.35 c 0,24.45 0,24.45 9,24.45 8.99,0 8.99,0 11.27,-8.59"
           fill="#efefef"
           stroke="3f3f3f"
           stroke-width="1"
           id="path12666" /><path
           d="m 459.66,414.39 c 0.72,4.51 0.72,4.51 10.33,19.29 9.62,14.77 9.62,14.77 24.22,14.77 14.59,0 14.59,0 20.4,-22.52 5.81,-22.52 5.81,-22.52 -15.88,-23.25 -21.68,-0.73 -21.68,-0.73 -27.43,-0.43 -5.76,0.3 -5.76,0.3 -9.06,3.96 -3.3,3.67 -3.3,3.67 -2.58,8.18"
           fill="#efefef"
           stroke="3f3f3f"
           stroke-width="1"
           id="path12668" /><path
           d="m 777.9,429.41 c 1.69,-19.61 1.69,-19.61 -3.74,-22.06 -5.43,-2.44 -5.43,-2.44 -27.54,8.4 -22.12,10.84 -22.12,10.84 -26.58,19.67 -4.46,8.84 -4.46,8.84 -5.27,11.22 -0.81,2.39 -0.81,2.39 30.31,2.39 31.13,0 31.13,0 32.82,-19.62"
           fill="#efefef"
           stroke="3f3f3f"
           stroke-width="1"
           id="path12670" /><path
           d="m 790.62,410.42 c -8.86,-0.67 -8.86,-0.67 -10.55,18.95 -1.7,19.61 -1.7,19.61 8.86,19.61 10.55,0 10.55,0 10.55,-18.94 0,-18.94 0,-18.94 -8.86,-19.62"
           fill="#efefef"
           stroke="3f3f3f"
           stroke-width="1"
           id="path12672" /><path
           d="m 449.94,434.04 c 7.91,-14.77 7.91,-14.77 7.19,-19.29 -0.72,-4.51 -0.72,-4.51 -16.97,-4.39 -16.26,0.13 -16.26,0.13 -24.4,4.99 -8.14,4.87 -8.14,4.87 -13.08,19.16 -4.95,14.3 -4.95,14.3 17.2,14.3 22.15,0 22.15,0 30.06,-14.77"
           fill="#efefef"
           stroke="3f3f3f"
           stroke-width="1"
           id="path12674" /><path
           d="m 65.08,433.71 c 2.85,-15.65 2.85,-15.65 -18.75,-8.6 -21.59,7.05 -21.59,7.05 -23.88,15.65 -2.28,8.6 -2.28,8.6 18.75,8.6 21.03,0 21.03,0 23.88,-15.65"
           fill="#efefef"
           stroke="3f3f3f"
           stroke-width="1"
           id="path12676" /><path
           d="m 116.5,446.86 c 0.28,2.67 0.28,2.67 32.11,2.67 31.83,0 31.83,0 30.78,-2.89 -1.05,-2.89 -1.05,-2.89 -17.54,-16.54 -16.5,-13.65 -16.5,-13.65 -31.06,0.22 -14.56,13.88 -14.56,13.88 -14.29,16.54"
           fill="#efefef"
           stroke="3f3f3f"
           stroke-width="1"
           id="path12678" /><path
           d="m 593.45,445.5 c -0.97,-3.39 -0.97,-3.39 -30.6,-25.95 C 533.21,397 533.21,397 528.56,400.43 c -4.65,3.43 -4.65,3.43 -10.46,25.95 -5.81,22.52 -5.81,22.52 35.25,22.52 41.07,0 41.07,0 40.1,-3.4"
           fill="#efefef"
           stroke="3f3f3f"
           stroke-width="1"
           id="path12680" /><path
           d="m 113.44,446.27 c -0.27,-2.66 -0.27,-2.66 -17.82,-20.9 -17.54,-18.23 -17.54,-18.23 -21.55,-12.98 -4.01,5.25 -4.01,5.25 -6.86,20.9 -2.85,15.65 -2.85,15.65 21.83,15.65 24.68,0 24.68,0 24.4,-2.67"
           fill="#efefef"
           stroke="3f3f3f"
           stroke-width="1"
           id="path12682" /><path
           d="m 468.94,434.7 c -9.61,-14.77 -9.61,-14.77 -17.52,0 -7.91,14.78 -7.91,14.78 9.61,14.78 17.52,0 17.52,0 7.91,-14.78"
           fill="#efefef"
           stroke="3f3f3f"
           stroke-width="1"
           id="path12684" /></g></clipPath><filter
       style="color-interpolation-filters:sRGB;"
       inkscape:label="Silhouette"
       id="filter16156"
       x="-0.019321042"
       y="-0.030731433"
       width="1.0386421"
       height="1.0614629"><feFlood
         flood-opacity="1"
         flood-color="rgb(0,0,0)"
         result="flood"
         id="feFlood16150" /><feComposite
         in="flood"
         in2="SourceGraphic"
         operator="in"
         result="composite"
         id="feComposite16152" /><feGaussianBlur
         stdDeviation="0.01"
         id="feGaussianBlur16154" /></filter><filter
       inkscape:label="Saturation Map"
       inkscape:menu="Fill and Transparency"
       inkscape:menu-tooltip="Creates an approximative semi-transparent and colorizable image of the saturation levels"
       style="color-interpolation-filters:sRGB;"
       id="filter48"
       x="0"
       y="0"
       width="1"
       height="1"><feColorMatrix
         values="1 0 0 0 0 1 0 0 0 0 1 0 0 0 0 0 0 0 0 1 "
         type="matrix"
         result="r"
         in="SourceGraphic"
         id="feColorMatrix39" /><feColorMatrix
         values="0 1 0 0 0 0 1 0 0 0 0 1 0 0 0 0 0 0 0 1 "
         type="matrix"
         result="g"
         in="SourceGraphic"
         id="feColorMatrix40" /><feColorMatrix
         values="0 0 1 0 0 0 0 1 0 0 0 0 1 0 0 0 0 0 0 1 "
         type="matrix"
         result="b"
         in="SourceGraphic"
         id="feColorMatrix41" /><feBlend
         result="minrg"
         in2="g"
         in="r"
         mode="darken"
         id="feBlend41" /><feBlend
         result="p"
         in2="b"
         in="minrg"
         mode="darken"
         id="feBlend42" /><feBlend
         result="maxrg"
         in2="g"
         in="r"
         mode="lighten"
         id="feBlend43" /><feBlend
         result="q"
         in2="b"
         in="maxrg"
         mode="lighten"
         id="feBlend44" /><feComponentTransfer
         result="q2"
         in="q"
         id="feComponentTransfer44"><feFuncR
           slope="0"
           type="linear"
           id="feFuncR44" /></feComponentTransfer><feBlend
         result="pq"
         in2="q2"
         in="p"
         mode="lighten"
         id="feBlend45" /><feColorMatrix
         values="-1 1 0 0 0 -1 1 0 0 0 -1 1 0 0 0 0 0 0 0 1 "
         type="matrix"
         result="qminp"
         in="pq"
         id="feColorMatrix45" /><feColorMatrix
         type="luminanceToAlpha"
         result="result1"
         in="qminp"
         id="feColorMatrix46" /><feComposite
         k2="0"
         k3="0"
         k1="1"
         operator="arithmetic"
         in2="qminp"
         in="result1"
         result="result3"
         id="feComposite46" /><feComposite
         in="result3"
         operator="in"
         in2="SourceGraphic"
         result="fbSourceGraphic"
         id="feComposite47" /><feFlood
         flood-color="rgb(255,204,0)"
         result="result1"
         id="feFlood47" /><feComposite
         operator="in"
         in2="fbSourceGraphic"
         result="result2"
         id="feComposite48" /></filter><radialGradient
       inkscape:collect="always"
       xlink:href="#linearGradient59"
       id="radialGradient26"
       cx="249.34938"
       cy="-100.68726"
       fx="249.34938"
       fy="-100.68726"
       r="2.8130839"
       gradientTransform="matrix(1,0,0,1.0369673,-135.1511,136.22679)"
       gradientUnits="userSpaceOnUse" /><filter
       y="-0.011106968"
       height="1.0224088"
       x="-0.0034686494"
       width="1.0069365"
       inkscape:menu-tooltip="Aquarelle paper effect which can be used for pictures as for objects"
       inkscape:menu="Textures"
       inkscape:label="Rough Paper"
       style="color-interpolation-filters:sRGB;"
       id="filter46"><feTurbulence
         type="fractalNoise"
         baseFrequency="0.04"
         numOctaves="5"
         seed="0"
         result="result4"
         id="feTurbulence43" /><feDisplacementMap
         in="SourceGraphic"
         in2="result4"
         yChannelSelector="G"
         xChannelSelector="R"
         scale="10"
         result="result3"
         id="feDisplacementMap43" /><feDiffuseLighting
         lighting-color="rgb(233,230,215)"
         diffuseConstant="1"
         surfaceScale="2"
         result="result1"
         in="result4"
         id="feDiffuseLighting43"><feDistantLight
           azimuth="235"
           elevation="40"
           id="feDistantLight43" /></feDiffuseLighting><feComposite
         operator="in"
         in="result3"
         in2="result1"
         result="result2"
         id="feComposite43" /><feComposite
         in2="result1"
         result="result5"
         operator="arithmetic"
         k1="1.7"
         id="feComposite44" /><feBlend
         in="result5"
         in2="result3"
         mode="normal"
         id="feBlend46" /></filter><linearGradient
       inkscape:collect="always"
       xlink:href="#linearGradient46"
       id="linearGradient48"
       x1="98.044487"
       y1="47.033134"
       x2="123.86438"
       y2="53.951553"
       gradientUnits="userSpaceOnUse" /><linearGradient
       inkscape:collect="always"
       xlink:href="#linearGradient50"
       id="linearGradient52"
       x1="98.036835"
       y1="58.206551"
       x2="121.11706"
       y2="62.905918"
       gradientUnits="userSpaceOnUse" /><radialGradient
       inkscape:collect="always"
       xlink:href="#linearGradient53"
       id="radialGradient55"
       cx="118.10777"
       cy="34.533306"
       fx="118.10777"
       fy="34.533306"
       r="11.58987"
       gradientTransform="matrix(0.62252853,-0.78259711,1.0916552,0.86837338,6.8838522,97.075204)"
       gradientUnits="userSpaceOnUse" /><radialGradient
       inkscape:collect="always"
       xlink:href="#linearGradient59"
       id="radialGradient26-8"
       cx="249.34938"
       cy="-100.68726"
       fx="249.34938"
       fy="-100.68726"
       r="2.8130839"
       gradientTransform="matrix(1,0,0,1.0369673,-127.79913,136.22679)"
       gradientUnits="userSpaceOnUse" /><linearGradient
       inkscape:collect="always"
       xlink:href="#linearGradient61"
       id="linearGradient63"
       x1="54.973385"
       y1="-50.024027"
       x2="84.215004"
       y2="-49.308357"
       gradientUnits="userSpaceOnUse"
       gradientTransform="translate(-12.805418,99.545711)" /><linearGradient
       inkscape:collect="always"
       xlink:href="#linearGradient64"
       id="linearGradient66"
       x1="15.497736"
       y1="105.55502"
       x2="16.064648"
       y2="45.995079"
       gradientUnits="userSpaceOnUse"
       gradientTransform="translate(-246.77928,-149.12217)" /></defs><g
     inkscape:label="Layer 1"
     inkscape:groupmode="layer"
     id="layer1"><rect
       style="fill:#1a1a1a;fill-opacity:1;stroke:#000000;stroke-width:1.5875;stroke-linecap:round;stroke-linejoin:bevel;stroke-dashoffset:18.1417"
       id="rect46"
       width="286.2999"
       height="156.74196"
       x="-37.787384"
       y="-23.368237" /><path
       style="fill:#70685c;fill-opacity:1;stroke:#000000;stroke-width:1.5875;stroke-linecap:round;stroke-linejoin:bevel;stroke-dashoffset:18.1417;filter:url(#filter46)"
       d="m -4.5210625,79.437959 c 0,0 12.0999904,-11.141099 24.9477095,-16.296243 12.84773,-5.155144 19.32044,-13.237474 37.83056,-9.514946 18.51013,3.722526 27.17994,2.387486 32.26177,2.387486 5.08183,0 18.825863,-4.309398 25.898123,-3.725373 7.07225,0.584026 7.0021,0.732698 18.07166,5.019308 11.06956,4.286607 27.24013,4.27895 29.48951,4.27895 2.2494,0 7.36162,-4.254995 12.26938,0 4.90773,4.254992 19.4265,6.407967 21.26689,8.055332 1.84042,1.647364 16.35916,10.540394 16.76815,16.619365 0.40897,6.078969 -5.52122,12.750879 -19.22203,16.916912 -13.70078,4.16604 -40.28442,15.95018 -67.68601,17.79059 -27.401583,1.8404 -55.110423,5.11224 -63.596223,0.61347 -8.4858,-4.49877 -14.72325,-5.31673 -35.78566,-6.33918 -21.0624191,-1.02244 -39.0575,0.40898 -38.85301,-5.11223 0.20449,-5.52122 5.3167305,-14.453972 8.588561,-15.60577 3.27183,-1.151797 -12.261351,-0.61486 -12.261351,-5.252164 0,-4.637307 8.9895205,-9.756653 8.9895205,-9.756653"
       id="path28" /><rect
       style="fill:url(#linearGradient66);fill-opacity:1;stroke:none;stroke-width:1.5875;stroke-linecap:round;stroke-linejoin:bevel;stroke-dashoffset:18.1417;stroke-opacity:1"
       id="rect64"
       width="324.3765"
       height="57.930016"
       x="-284.56665"
       y="-101.49717"
       transform="scale(-1)" /><path
       d="m -1.324992,-11.621047 v 15.44919 l 34.779279,12.22768 27.54612,9.68468 h 10e-4 v 5.1e-4 l 20.8163,7.31842 -2.60242,-5.78414 z"
       style="fill:#ececec;stroke:#000000;stroke-width:1.5875;stroke-linejoin:bevel;stroke-dashoffset:18.1417"
       id="path18" /><path
       d="m 33.454287,16.055823 v 2.76314 l 8.71368,2.69647 13.42553,4.15375 5.40691,0.0713 z"
       style="fill:#4d4d4d;stroke:#000000;stroke-width:1.5875;stroke-linejoin:bevel;stroke-dashoffset:18.1417"
       id="path17" /><path
       d="m 81.817737,56.247165 -20.8163,7.99021 -4.75526,6.850744 22.96914,-11.134204 z"
       style="fill:#808080;stroke:#000000;stroke-width:1.5875;stroke-linejoin:bevel;stroke-dashoffset:18.1417"
       id="path16" /><path
       d="M 26.007707,85.745622 33.454287,74.811923 -1.324992,88.162012 V 98.994947 Z"
       style="fill:#808080;stroke:#000000;stroke-width:1.5875;stroke-linejoin:bevel;stroke-dashoffset:18.1417"
       id="path15" /><path
       d="m 81.817737,33.059433 -20.8163,-7.31842 v 38.496362 l 20.8163,-7.99021 z"
       style="fill:#cccccc;stroke:#000000;stroke-width:1.5875;stroke-linejoin:bevel;stroke-dashoffset:18.1417"
       id="path13" /><path
       d="M -1.324992,88.162012 33.454287,74.811923 v -55.99296 -2.76314 L -1.324992,3.828143 Z"
       style="fill:#cccccc;stroke:#000000;stroke-width:1.5875;stroke-linejoin:bevel;stroke-dashoffset:18.1417"
       id="path12" /><path
       d="m 56.245657,71.088119 -0.65216,-45.418936 -13.42553,-4.15375 v 56.396559 z"
       style="fill:#666666;stroke:#000000;stroke-width:1.5875;stroke-linejoin:bevel;stroke-dashoffset:18.1417"
       id="path11" /><path
       d="M 42.167967,77.911992 V 21.515433 l -8.71368,-2.69647 v 55.99296 0 l -7.44658,10.933699 16.16026,-7.833113 z"
       style="fill:#666666;stroke:#000000;stroke-width:1.5875;stroke-linejoin:bevel;stroke-dashoffset:18.1417"
       id="path10" /><path
       d="M 42.167967,77.911992 V 21.515433 c 13.090191,-0.219577 21.217644,-4.618302 29.24162,-9.104165 V 88.063436 C 63.468058,84.679794 60.137797,81.296151 42.167967,77.912509 Z"
       style="fill:url(#linearGradient63);stroke:none;stroke-width:1.5875;stroke-linejoin:bevel;stroke-dashoffset:18.1417"
       id="path10-0"
       sodipodi:nodetypes="cccccc" /><path
       d="m 56.246177,71.088119 4.75526,-6.850744 v -38.496362 -5.1e-4 h -0.001 l -5.40691,-0.0713 0.65216,45.418936 z"
       style="fill:#4d4d4d;stroke:#000000;stroke-width:1.5875;stroke-linejoin:bevel;stroke-dashoffset:18.1417"
       id="path14" /><g
       id="g68"
       transform="translate(16.768139,-2.0012176)"><path
         style="fill:url(#linearGradient52);stroke:#000000;stroke-width:1.5875;stroke-linejoin:bevel;stroke-dashoffset:18.1417"
         d="m 115.18635,38.961323 c 5.64862,1.251664 9.61769,4.470462 7.14229,12.050274 -2.4754,7.579812 -6.71241,24.667206 -10.65923,26.165092 -3.94682,1.497888 -9.58234,0.193439 -11.808463,-1.643297 -2.22611,-1.836734 -0.39428,-29.050585 1.264413,-32.135121 1.65869,-3.084539 7.25481,-5.826671 14.06099,-4.436948 z"
         id="path19" /><path
         style="fill:url(#linearGradient48);fill-opacity:1;stroke:#000000;stroke-width:1.5875;stroke-linejoin:bevel;stroke-dashoffset:18.1417"
         d="m 115.18635,38.961323 c 5.64862,1.251664 9.61769,4.470462 7.14229,12.050274 -1.42937,4.376817 -3.44611,11.923713 -5.65518,17.808727 -5.75465,1.309275 -9.74723,0 -17.835273,-2.927393 0.10173,-8.752976 1.229643,-20.528051 2.287173,-22.49466 1.65869,-3.084538 7.25481,-5.826671 14.06099,-4.436948 z"
         id="path19-2"
         sodipodi:nodetypes="csccsc" /><path
         id="path20"
         style="fill:url(#radialGradient55);fill-opacity:1;stroke:#000000;stroke-width:1.5875;stroke-linejoin:bevel;stroke-dashoffset:18.1417"
         d="m 125.88769,32.037613 c 0,5.863985 -3.01735,12.405961 -8.97989,12.405962 -5.96253,-1e-6 -12.61235,-6.541977 -12.61235,-12.405962 0,-5.86398 4.83357,-10.61768 10.79611,-10.61768 5.96254,0 10.79613,4.7537 10.79613,10.61768 z"
         sodipodi:nodetypes="sssss" /><path
         style="fill:#82d7e9;fill-opacity:1;stroke:#000000;stroke-width:1.5875;stroke-linecap:round;stroke-linejoin:bevel;stroke-dashoffset:18.1417"
         d="m 113.71126,26.317273 c -2.27631,0.40898 -4.13713,2.65836 -4.13713,2.65836"
         id="path21" /><path
         style="fill:#82d7e9;fill-opacity:1;stroke:#000000;stroke-width:1.5875;stroke-linecap:round;stroke-linejoin:bevel;stroke-dashoffset:18.1417"
         d="m 121.09707,26.624013 c 1.63592,0.30673 3.07403,2.35162 3.07403,2.35162"
         id="path22" /><ellipse
         style="fill:url(#radialGradient26);stroke:none;stroke-width:1.5875;stroke-linejoin:bevel;stroke-dashoffset:18.1417;stroke-opacity:1"
         id="path23"
         cx="113.98138"
         cy="31.715132"
         rx="2.0193338"
         ry="2.1233261" /><ellipse
         style="fill:url(#radialGradient26-8);stroke:none;stroke-width:1.5875;stroke-linejoin:bevel;stroke-dashoffset:18.1417;stroke-opacity:1"
         id="path23-5"
         cx="121.33335"
         cy="31.715132"
         rx="2.0193338"
         ry="2.1233261" /></g><rect
       style="fill:url(#linearGradient5231);fill-opacity:1;stroke:none;stroke-width:0.528626;stroke-linecap:round;stroke-linejoin:round;stroke-dashoffset:4.8"
       id="rect184"
       width="169.33333"
       height="95.25"
       x="5.0862632e-06"
       y="0" /><text
       xml:space="preserve"
       transform="scale(0.26458333)"
       id="text396"
       style="white-space:pre;shape-inside:url(#rect398);display:inline;fill:#333333;stroke:#c87137;stroke-width:2;stroke-linecap:round;stroke-linejoin:round;stroke-dashoffset:4.8" /><text
       xml:space="preserve"
       transform="matrix(0.26458333,0,0,0.26458333,29.911868,58.355206)"
       id="text402"
       style="font-size:90px;white-space:pre;shape-inside:url(#rect404);display:inline;fill:url(#linearGradient3662);fill-opacity:1;stroke:#ffffff;stroke-width:4;stroke-linecap:square;stroke-linejoin:round;stroke-dasharray:none;stroke-dashoffset:4.8;stroke-opacity:0.765244"><tspan
         x="56.419922"
         y="118.01172"
         id="tspan2"><tspan
           style="font-family:RimWordFont;-inkscape-font-specification:RimWordFont"
           id="tspan1">Vacuum</tspan></tspan></text><path
       style="fill:none;fill-opacity:1;stroke:#000000;stroke-width:1.5875;stroke-linecap:round;stroke-linejoin:bevel;stroke-dashoffset:18.1417;stroke-opacity:1"
       d="m 67.598101,21.664858 3.811485,7.735374 v 30.842037 l -3.678841,5.278747"
       id="path64" /><text
       xml:space="preserve"
       style="font-style:normal;font-variant:normal;font-weight:normal;font-stretch:normal;font-size:23.8125px;font-family:RimWordFont;-inkscape-font-specification:'RimWordFont, Normal';font-variant-ligatures:normal;font-variant-caps:normal;font-variant-numeric:normal;font-variant-east-asian:normal;fill:url(#linearGradient2912);fill-opacity:1;stroke:#000000;stroke-width:1.05833;stroke-linecap:round;stroke-linejoin:round;stroke-dasharray:none;stroke-dashoffset:4.8;stroke-opacity:1"
       x="3.4827936"
       y="20.584198"
       id="text1327"><tspan
         sodipodi:role="line"
         id="tspan1325"
         style="font-size:23.8125px;fill:url(#linearGradient2912);fill-opacity:1;stroke:#000000;stroke-width:1.05833;stroke-dasharray:none;stroke-opacity:1"
         x="3.4827936"
         y="20.584198">HARD</tspan></text></g></svg>
